<?xml version="1.0" encoding="utf-8"?>
<!-- Generator: Adobe Illustrator 25.4.1, SVG Export Plug-In . SVG Version: 6.00 Build 0)  -->
<svg version="1.0" id="Layer_1" xmlns="http://www.w3.org/2000/svg" xmlns:xlink="http://www.w3.org/1999/xlink" x="0px" y="0px"
	 viewBox="0 0 500 500" style="enable-background:new 0 0 500 500;" xml:space="preserve">
<style type="text/css">
	.st0{fill:none;stroke:#FFFFFF;stroke-width:4;stroke-miterlimit:10;}
	.st1{fill:#711780;}
	.st2{fill:#17BBFE;}
	.st3{fill:#6EBE06;}
	.st4{fill:#E52976;}
	.st5{opacity:0.69;}
	.st6{fill:#FFFFFF;}
	.st7{fill:#FCF4FB;}
	.st8{fill:#FCD012;}
	.st9{fill:#EE510B;}
	.st10{fill:#FE42C8;}
	.st11{fill:#29B7F7;}
	.st12{fill:url(#SVGID_1_);}
	.st13{fill:url(#SVGID_00000144335319685022227670000013051684444579634577_);}
	.st14{fill:url(#SVGID_00000052798780589306358720000007092310844473338762_);}
	.st15{fill:url(#SVGID_00000000209687374316802050000004594586707129485718_);}
	.st16{fill:#751D8A;}
	.st17{fill:#FACE1E;}
</style>
<path class="st0" d="M-664.45,201.81"/>
<g>
	<g>
		<circle class="st1" cx="125" cy="277.24" r="60"/>
		<circle class="st2" cx="135" cy="205.24" r="36"/>
	</g>
	<g>
		<circle class="st3" cx="365" cy="205.24" r="36"/>
		<circle class="st2" cx="375" cy="277.24" r="60"/>
	</g>
	<g>
		<ellipse class="st4" cx="250" cy="261.55" rx="145.38" ry="99.68"/>
		<g class="st5">
			<path class="st6" d="M119.2,294.03c-0.49,0-0.96-0.25-1.22-0.7c-5.64-9.63-8.5-19.83-8.5-30.32c0-11.49,3.41-22.59,10.14-32.99
				c0.42-0.66,1.3-0.84,1.96-0.42c0.66,0.42,0.84,1.3,0.42,1.96c-6.43,9.93-9.69,20.52-9.69,31.45c0,9.98,2.73,19.7,8.11,28.89
				c0.39,0.67,0.17,1.54-0.51,1.94C119.69,293.97,119.45,294.03,119.2,294.03z"/>
		</g>
		<g>
			<g>
				<path class="st7" d="M163.51,323.39c-0.05-0.01-0.07-0.01-0.12-0.01c-2.34-0.29-4.53-1.48-6.16-3.32
					c-1.72-1.93-2.61-4.32-2.52-6.75c0,0,0,0,0,0c0.01-0.23,0.02-0.62,0.04-1.17c0.03-0.81,0.09-1.8,0.18-3.03
					c0.09-1.27,0.24-2.7,0.45-4.25c0.21-1.6,0.52-3.26,0.88-4.92c0.96-4.42,2.29-7.97,3.99-10.74c0.9-1.46,1.91-2.74,3.01-3.75
					c1.1-1.01,2.24-1.82,3.41-2.41c1.18-0.6,2.38-1.02,3.57-1.26c1.07-0.21,2.12-0.3,3.12-0.27c3.94,0.1,7.5,1.77,10.31,4.87
					c0.02,0.02,0.03,0.03,0.05,0.05c2.22,2.49,3.85,5.75,5,9.97c0.01,0.03,0.01,0.04,0.02,0.07c0.7,2.67,1.22,5.76,1.56,9.18
					c0,0.03,0,0.05,0.01,0.08c0.12,1.34,0.21,2.66,0.27,3.92c0.06,1.25,0.09,2.4,0.09,3.39c0,0.96-0.01,1.72-0.02,2.3
					c-0.01,0.29-0.01,0.44-0.02,0.73c0,0.07,0,0.11,0,0.19c-0.01,0.1-0.01,0.15-0.02,0.25c-0.17,2.34-1.12,4.4-2.73,5.94
					c-1.68,1.6-3.89,2.39-6.23,2.22c-0.14-0.01-0.21-0.01-0.36-0.02c-0.09-0.01-0.14-0.02-0.23-0.03c-2.35-0.34-4.43-1.53-6.01-3.42
					c-1.6-1.9-2.44-4.29-2.36-6.72c-0.01,0-0.02,0-0.04,0c-0.01,0.24-0.02,0.48-0.03,0.73c-0.09,2.38-1.02,4.47-2.66,6.03
					c-1.69,1.59-3.92,2.36-6.29,2.15C163.61,323.4,163.58,323.39,163.51,323.39z"/>
				<path class="st7" d="M218.65,326.58c-0.22-0.01-0.45-0.02-0.68-0.05c-2.17-0.25-4.09-1.3-5.56-3.01
					c-1.45-1.68-2.26-3.77-2.34-6.03c-0.13-7.69-0.26-15.38-0.39-23.08c-0.07-2.49,0.81-4.8,2.47-6.53
					c1.55-1.62,3.62-2.55,5.82-2.61c0.11,0,0.22,0,0.33,0c2.25,0.03,4.37,0.98,5.96,2.7c0.64,0.69,1.17,1.48,1.58,2.33
					c0.2-0.01,0.4-0.02,0.6-0.01c0.18,0,0.36,0.01,0.53,0.02c2.64,0.19,5.09,1.35,7.09,3.34c0.04,0.04,0.06,0.06,0.1,0.1
					c1.16,1.21,2.19,2.73,3.06,4.52c0.02,0.04,0.03,0.06,0.05,0.1c1.07,2.29,1.91,5.07,2.59,8.49c0.26,1.29,0.48,2.57,0.66,3.79
					c0.18,1.24,0.32,2.3,0.42,3.26c0.1,0.94,0.17,1.7,0.22,2.28c0.05,0.61,0.08,0.93,0.09,1.17c0.12,2.39-0.62,4.71-2.12,6.52
					c-1.49,1.8-3.55,2.89-5.78,3.03c-0.1,0.01-0.14,0.01-0.24,0.02c-0.17,0-0.25,0-0.41-0.01c-2.2-0.04-4.29-0.97-5.88-2.61
					c-0.44-0.45-0.82-0.94-1.16-1.46c-0.46,0.7-1.01,1.32-1.65,1.86C222.47,326,220.62,326.64,218.65,326.58z"/>
				<path class="st7" d="M254.49,327.13c-1.23,0.01-2.41-0.25-3.48-0.76c-1.48,0.51-2.98,0.77-4.46,0.77
					c-1.07,0-2.13-0.14-3.15-0.39c-0.96-0.24-1.94-0.59-2.89-1.05c-0.03-0.02-0.05-0.02-0.08-0.04c-0.93-0.46-1.82-1.03-2.66-1.68
					c-0.8-0.63-1.56-1.36-2.26-2.14c-1.77-1.99-3.14-4.35-4.01-7c-0.82-2.51-1.21-5.21-1.14-8.04c0-0.08,0-0.12,0.01-0.2
					c0.06-1.18,0.18-2.34,0.36-3.46c0.21-1.28,0.52-2.53,0.94-3.71c0.78-2.23,1.88-4.25,3.24-5.98c1.46-1.85,3.2-3.34,5.16-4.38
					c2.07-1.1,4.25-1.65,6.49-1.65c1.43,0,2.81,0.23,4.12,0.67c0.98-0.42,2.03-0.63,3.13-0.63c0.12,0,0.23,0,0.35,0.01
					c2.2,0.09,4.27,1.07,5.83,2.78c1.64,1.8,2.49,4.17,2.41,6.68c-0.12,3.7-0.09,7.3,0.07,10.64c0.16,3.42,0.37,6.67,0.58,9.6
					c0.18,2.48-0.55,4.86-2.03,6.73c-1.5,1.89-3.58,3.04-5.88,3.24c-0.09,0.01-0.14,0.01-0.23,0.02
					C254.73,327.13,254.65,327.13,254.49,327.13z"/>
				<path class="st7" d="M289.73,326.34c-1.82,0.07-3.6-0.17-5.25-0.73c-3.57-1.21-6.41-3.8-8.25-7.35
					c-1.74-3.36-2.51-7.5-2.22-12.25c0.15-2.42,0.56-4.69,1.2-6.77c0.71-2.29,1.74-4.34,3.03-6.09c1.31-1.77,2.93-3.25,4.79-4.33
					c0.07-0.04,0.11-0.06,0.19-0.1c1.96-1.05,4.01-1.6,6.09-1.63c0.15,0,0.23,0,0.39,0c2.18,0.06,4.25,0.63,6.16,1.71
					c0.04,0.03,0.07,0.04,0.11,0.06c0.04,0.03,0.07,0.04,0.11,0.07c1.81,1.13,3.34,2.63,4.56,4.43c1.17,1.72,2.09,3.74,2.67,6
					c0.52,2.02,0.82,4.23,0.88,6.57c0,0.07,0,0.11,0,0.18c0,1.31-0.27,2.59-0.78,3.78c0.35,0.74,0.6,1.55,0.74,2.39
					c0.38,2.3-0.11,4.67-1.37,6.67c-0.03,0.05-0.05,0.08-0.09,0.14c-0.98,1.48-2.22,2.78-3.68,3.87c-1.31,0.97-2.77,1.77-4.34,2.37
					c-0.05,0.02-0.08,0.03-0.13,0.05c-0.05,0.02-0.08,0.03-0.13,0.04c-0.72,0.24-1.45,0.44-2.16,0.59
					C291.43,326.2,290.58,326.31,289.73,326.34z"/>
				<path class="st7" d="M311.23,325.28c-1.7,0.11-3.31-0.14-4.75-0.68c-2.78-1.03-5.05-3.04-6.45-5.83
					c-0.71-1.41-1.23-3.07-1.59-5.07c-0.02-0.09-0.03-0.19-0.05-0.28c-0.84-0.39-1.62-0.93-2.31-1.61
					c-1.58-1.57-2.51-3.73-2.59-6.06c-0.09-2.45,0.74-4.8,2.33-6.61c0.71-0.81,1.53-1.47,2.43-1.96c0.04-0.49,0.08-0.91,0.1-1.24
					c0.01-0.16,0.02-0.32,0.04-0.48c0.14-1.78,0.7-3.57,1.77-5.06c1.19-1.65,2.83-2.79,4.71-3.31c0.67-0.19,1.37-0.3,2.07-0.32
					c0.63-0.01,1.26,0.04,1.88,0.17c1.43,0.3,2.75,0.99,3.83,1.99c0.04,0.04,0.06,0.06,0.1,0.09c0.04,0.04,0.06,0.06,0.1,0.1
					c0.35,0.36,0.7,0.78,1.13,1.38c0.74,1.03,1.57,2.73,1.48,5.18c1.18,0.35,2.27,0.98,3.19,1.85c1.21,1.14,2.04,2.6,2.43,4.22
					c0.74,0.39,1.42,0.89,2.02,1.5c1.63,1.64,2.47,3.85,2.41,6.24c-0.05,1.74-0.35,3.46-0.92,5.09c-0.58,1.65-1.39,3.19-2.43,4.59
					c-0.04,0.05-0.05,0.07-0.09,0.12c-2.06,2.64-4.67,4.46-7.68,5.41C313.34,325.01,312.28,325.22,311.23,325.28z"/>
				<path class="st7" d="M329.84,323.88c-1.78,0.14-3.55,0.03-5.25-0.33c-2-0.42-3.82-1.18-5.35-2.27
					c-1.74-1.24-3.07-2.86-3.92-4.78c-0.94-2.15-1-4.57-0.19-6.81c0.4-1.12,1-2.14,1.76-3.01c-1.06-2.02-1.59-4.35-1.52-6.84
					c0-0.07,0-0.11,0.01-0.18c0.21-3.97,1.79-7.4,4.57-9.9c0.03-0.03,0.05-0.04,0.08-0.07c2.18-1.9,4.84-3.07,7.85-3.5
					c0.63-0.09,1.27-0.15,1.91-0.17c0.96-0.03,1.94,0.02,2.91,0.15c1.51,0.2,2.98,0.57,4.38,1.09c0.03,0.01,0.05,0.02,0.08,0.03
					c1.91,0.74,3.53,1.75,4.83,2.99c1.53,1.48,2.55,3.23,3.04,5.19c0.56,2.23,0.21,4.59-1.04,6.66c-0.29,0.49-0.62,0.94-0.99,1.36
					c1.23,1.75,1.91,3.8,1.97,6.04c0.09,3.55-1.34,6.96-4.05,9.58c-1.84,1.78-4.12,3.07-6.68,3.89c-0.69,0.22-1.42,0.42-2.15,0.57
					C331.35,323.71,330.59,323.82,329.84,323.88z"/>
				<path class="st7" d="M196.46,334.94c-0.09-0.01-0.14-0.02-0.23-0.03c-2.29-0.32-4.38-1.57-5.87-3.49
					c-1.47-1.9-2.19-4.25-2.03-6.6c0.06-0.95,0.12-2.18,0.18-3.61c0.06-1.43,0.1-2.99,0.12-4.65c0.02-1.67,0.03-3.44,0.02-5.28
					c-0.01-2.23-0.02-3.35-0.03-5.58c-0.01-1.8-0.03-3.54-0.07-5.21c-0.03-1.69-0.06-3.25-0.09-4.65c-0.05-2.37,0.76-4.61,2.34-6.3
					c1.55-1.67,3.65-2.61,5.91-2.65c0.11,0,0.22,0,0.33,0c1.15,0.03,2.25,0.28,3.27,0.75c1.31-0.4,2.67-0.59,4.07-0.56
					c2.03,0.04,4.03,0.52,5.95,1.44c0.04,0.02,0.06,0.03,0.09,0.04c1.75,0.88,3.36,2.1,4.77,3.62c0.04,0.04,0.05,0.06,0.09,0.1
					c1.71,1.92,3.03,4.19,3.92,6.74c0.88,2.5,1.29,5.22,1.22,8.05c-0.06,2.56-0.49,5.03-1.29,7.31c-0.79,2.26-1.9,4.27-3.28,5.99
					c-0.04,0.05-0.06,0.07-0.1,0.12c-1.52,1.79-3.27,3.19-5.21,4.14c-1.63,0.8-3.33,1.26-5.07,1.37c-0.02,0.4-0.05,0.78-0.08,1.14
					c-0.17,2.22-1.13,4.3-2.72,5.76c-1.61,1.47-3.62,2.18-5.81,2.04C196.7,334.95,196.62,334.95,196.46,334.94z"/>
				<path class="st6" d="M189.67,325.3c-2.14-0.13-4.11-1.04-5.7-2.62c-1.61-1.59-2.58-3.72-2.79-5.97
					c-0.21-2.31-0.34-4.58-0.32-6.71c0.01-1.96,0.04-4.01,0.09-6.07c0.04-1.67,0.09-3.35,0.12-5.06c0.03-1.52,0-3.15-0.11-4.84
					c-0.15-2.4,0.6-4.68,2.16-6.42c1.49-1.68,3.54-2.67,5.77-2.79c0.22-0.01,0.44-0.01,0.65-0.01c2.12,0.05,4.15,0.93,5.72,2.49
					c1.62,1.61,2.6,3.75,2.77,6.04c0,0.04,0,0.07,0.01,0.11c0.13,2.19,0.17,4.3,0.13,6.27c-0.04,1.83-0.08,3.63-0.12,5.41
					c-0.05,1.9-0.07,3.81-0.08,5.66c-0.01,1.65,0.07,3.37,0.23,5.12c0,0.06,0.01,0.09,0.01,0.14c0.17,2.31-0.51,4.55-1.9,6.29
					c-1.43,1.77-3.44,2.82-5.66,2.96c-0.14,0.01-0.22,0.01-0.36,0.02C190.03,325.32,189.91,325.31,189.67,325.3z"/>
				<path class="st7" d="M206.13,240.47c-0.09-0.01-0.14-0.01-0.23-0.02c-2.63-0.17-4.97-1.31-6.77-3.28
					c-1.9-2.08-2.82-4.83-2.69-7.71c0.25-5.4,0.26-11.2,0.2-17.05c-0.06-5.86-0.21-11.59-0.55-16.93c-0.17-2.8,0.71-5.6,2.54-7.84
					c1.79-2.2,4.14-3.55,6.78-3.91c1.45-0.2,2.91-0.33,4.31-0.4c2.34-0.11,4.63-0.03,6.79,0.23c3.59,0.44,6.91,1.38,9.84,2.8
					c3.11,1.51,5.71,3.51,7.75,5.87c1.25,1.45,2.27,3.08,3.01,4.82c0.72,1.68,1.2,3.45,1.44,5.25c0.01,0.1,0.02,0.15,0.03,0.26
					c0.01,0.1,0.01,0.15,0.02,0.26c0.06,0.95,0.05,2-0.03,3.24c-0.1,1.65-0.5,3.37-1.17,5.12c-0.63,1.65-1.57,3.33-2.79,5
					c-1.23,1.69-2.86,3.33-4.84,4.85c-3.51,2.7-7.81,4.8-13.05,6.38c-0.03,0.9-0.08,1.79-0.12,2.66c-0.15,2.71-1.15,5.22-2.98,7.18
					c-1.92,2.06-4.36,3.16-7.07,3.19C206.37,240.47,206.29,240.47,206.13,240.47z"/>
				<path class="st7" d="M238.77,240.36c-2.34,0.01-4.49-0.86-6.23-2.51c-1.78-1.69-2.81-3.95-3.04-6.51
					c-0.27-3.1-0.44-6.16-0.43-9.03c0.02-2.72,0.05-5.55,0.12-8.39c0.06-2.32,0.12-4.65,0.16-7.03c0.04-2.18,0-4.51-0.15-6.89
					c-0.17-2.69,0.66-5.31,2.35-7.35c1.66-2,3.84-3.18,6.32-3.41c0.25-0.02,0.48-0.03,0.71-0.04c2.34-0.03,4.5,0.86,6.23,2.57
					c1.8,1.78,2.85,4.08,3.04,6.65c0,0.05,0,0.07,0.01,0.11c0.17,2.93,0.22,5.75,0.17,8.39c-0.05,2.5-0.11,4.96-0.17,7.39
					c-0.06,2.61-0.1,5.25-0.11,7.8c-0.01,2.34,0.09,4.77,0.32,7.24c0,0.06,0.01,0.09,0.01,0.15c0.19,2.6-0.53,5.07-2.09,7.12
					c-1.56,2.06-3.75,3.37-6.19,3.67c-0.14,0.02-0.22,0.03-0.36,0.05C239.18,240.36,239.04,240.36,238.77,240.36z"/>
				<g>
					<path class="st7" d="M268.85,240.39c-1.63-0.01-3.16-0.43-4.53-1.24c-2.04,0.8-4.1,1.21-6.13,1.2c-1.27,0-2.54-0.15-3.75-0.45
						c-1.16-0.28-2.33-0.7-3.48-1.24c-0.03-0.02-0.05-0.02-0.08-0.04c-1.12-0.55-2.2-1.22-3.2-2c-0.97-0.75-1.89-1.62-2.74-2.56
						c-2.16-2.4-3.84-5.25-4.9-8.48c-1.02-3.08-1.49-6.44-1.41-9.96c0-0.08,0-0.12,0.01-0.2c0.08-1.49,0.23-2.97,0.46-4.39
						c0.25-1.59,0.65-3.14,1.15-4.6c0.96-2.77,2.31-5.28,3.98-7.42c1.77-2.27,3.87-4.09,6.23-5.36c2.47-1.32,5.07-1.98,7.74-1.96
						c1.96,0.02,3.85,0.4,5.63,1.12c1.25-0.65,2.64-0.98,4.09-0.95c0.13,0,0.26,0.01,0.39,0.02c2.43,0.15,4.64,1.25,6.37,3.19
						c1.79,2,2.71,4.6,2.63,7.31c-0.16,5.02-0.12,9.88,0.09,14.4c0.21,4.63,0.5,8.99,0.78,12.91c0.2,2.69-0.6,5.26-2.21,7.25
						c-1.63,2.02-3.91,3.24-6.41,3.42c-0.09,0.01-0.14,0.01-0.23,0.02C269.13,240.39,269.04,240.39,268.85,240.39z M257.43,214.6
						c-0.07,0.45-0.12,0.95-0.13,1.5c0,0.05,0,0.07,0,0.12c-0.02,0.65,0.01,1.25,0.11,1.8c0.05-0.57,0.08-1.18,0.08-1.85
						C257.49,215.62,257.47,215.09,257.43,214.6z"/>
				</g>
				<path class="st7" d="M282.55,253.06c-1.36,0-2.68-0.31-3.9-0.9c-2.37-1.14-4.14-3.21-4.95-5.84c-0.76-2.44-0.65-4.99,0.33-7.35
					c0.02-0.05,0.03-0.07,0.05-0.12c0.02-0.05,0.03-0.07,0.05-0.11c0.52-1.15,1.01-2.3,1.44-3.44c0.18-0.47,0.36-0.95,0.53-1.43
					c-0.66-2.15-1.23-4.27-1.7-6.33c-0.59-2.58-1.15-5.25-1.7-7.89c-0.44-2.12-0.97-4.47-1.52-6.91c-0.54-2.38-1.19-5.1-1.99-8.01
					c-0.71-2.6-0.44-5.33,0.79-7.65c1.2-2.25,3.09-3.83,5.45-4.54c0.04-0.01,0.07-0.02,0.11-0.03c0.04-0.01,0.07-0.02,0.11-0.03
					c0.82-0.21,1.65-0.31,2.47-0.29c1.58,0.05,3.11,0.51,4.52,1.39c1.66,1.03,2.94,2.46,3.79,4.2c0.89-1.68,2.25-3.02,3.94-3.85
					c1.33-0.65,2.74-0.95,4.19-0.88c0.94,0.04,1.88,0.24,2.8,0.58c2.43,0.9,4.39,2.73,5.53,5.14c1.13,2.37,1.33,4.93,0.6,7.4
					c-0.01,0.03-0.01,0.04-0.02,0.07c-0.97,3.14-1.82,6.08-2.53,8.73c-0.71,2.65-1.39,5.25-2.02,7.71c-0.54,2.1-1.06,4.15-1.58,6.14
					c-0.54,2.04-1.12,4.1-1.75,6.12c-0.63,2.02-1.32,4.08-2.05,6.11c-0.76,2.09-1.64,4.25-2.61,6.41c-0.75,1.68-1.95,3.11-3.47,4.11
					C285.98,252.55,284.28,253.07,282.55,253.06z"/>
				<path class="st7" d="M229.91,284.38c-1.21-0.01-2.47-0.31-3.74-0.89c-0.75-0.34-1.45-0.8-2.1-1.37c-0.96,0.8-2.08,1.38-3.3,1.72
					c-0.06,0.02-0.09,0.02-0.16,0.04c-0.71,0.18-1.43,0.26-2.15,0.25c-1.77-0.02-3.51-0.61-5-1.71c-1.86-1.37-3.19-3.47-4.04-6.15
					c-0.22-0.7-0.43-1.47-0.62-2.33c-0.15-0.7-0.32-1.52-0.49-2.46c-0.35-1.88-0.71-4.2-1.06-6.89c-0.34-2.62-0.71-5.72-1.09-9.2
					c-0.26-2.4,0.4-4.77,1.85-6.69c1.43-1.88,3.46-3.07,5.73-3.36c0.33-0.04,0.66-0.06,0.98-0.07c1.68-0.01,3.28,0.49,4.67,1.45
					c1.45-1.11,3.15-1.71,4.95-1.72c1.69-0.01,3.29,0.49,4.68,1.46c1.46-1.14,3.18-1.74,4.98-1.75c0.32,0,0.65,0.02,0.97,0.05
					c2.3,0.27,4.35,1.48,5.77,3.42c1.36,1.86,2,4.09,1.84,6.46c0,0.05-0.01,0.08-0.01,0.13c-0.01,0.05-0.01,0.08-0.01,0.13
					c-0.4,3.84-0.79,7.21-1.16,10c-0.39,2.93-0.78,5.34-1.18,7.35c-0.43,2.19-0.9,3.95-1.44,5.31c-0.03,0.08-0.05,0.12-0.08,0.2
					c0,0-0.23,0.49-0.32,0.7c-0.32,0.72-0.73,1.41-1.22,2.08c-0.56,0.77-1.24,1.46-2.01,2.06c-1.1,0.85-2.37,1.41-3.76,1.65
					c-0.21,0.04-0.31,0.05-0.51,0.09c-0.09,0-0.13,0-0.22,0C230.42,284.37,230.17,284.38,229.91,284.38z"/>
				<path class="st7" d="M242.46,284.48c-2.02-0.01-3.92-0.76-5.49-2.16c-1.59-1.42-2.62-3.34-2.97-5.55
					c-0.01-0.05-0.01-0.08-0.02-0.13c-0.17-1.22-0.24-2.54-0.21-3.92c0.02-1.04,0.09-2.18,0.15-3.34c0.06-1.16,0.08-2.38,0.1-3.64
					c0.02-0.93-0.04-1.84-0.17-2.68c-0.16-1.06-0.13-2.12,0.05-3.14c-0.99-1.57-1.53-3.43-1.53-5.37c0-2.42,0.82-4.66,2.38-6.49
					c0.04-0.04,0.05-0.06,0.09-0.11c0.04-0.04,0.06-0.06,0.1-0.1c0.38-0.41,0.8-0.79,1.25-1.14c0.51-0.39,1.07-0.73,1.66-1.02
					c0.69-0.33,1.49-0.6,2.33-0.76c0.7-0.14,1.4-0.2,2.09-0.2c1.56,0,3.03,0.31,4.36,0.93c0.06,0.03,0.1,0.04,0.16,0.07
					c0.06,0.03,0.09,0.05,0.16,0.08c0.9,0.48,1.73,1.1,2.46,1.82c0.1,0.1,0.15,0.15,0.25,0.24c0.09,0.11,0.13,0.16,0.22,0.27
					c1.5,1.84,2.29,4.05,2.29,6.39c0,1.85-0.49,3.62-1.42,5.18c0.01,0.07,0.07,0.38,0.07,0.38c0.3,1.91,0.43,3.86,0.38,5.78
					c-0.04,1.57-0.09,3.08-0.16,4.51c-0.04,0.88-0.08,1.74-0.1,2.56c-0.02,0.6,0.01,0.83,0.02,0.84c0.01,0.07,0.02,0.1,0.03,0.16
					c0.34,2.44-0.24,4.87-1.61,6.84c-1.31,1.87-3.22,3.09-5.32,3.52C243.55,284.42,243.02,284.48,242.46,284.48z"/>
				<path class="st7" d="M258.75,284.48c-1.7,0.01-3.31-0.34-4.76-0.98c-2.78-1.21-5.06-3.38-6.46-6.29
					c-0.71-1.48-1.23-3.19-1.59-5.23c-0.02-0.1-0.03-0.19-0.05-0.29c-0.84-0.43-1.62-1.01-2.31-1.73c-1.58-1.65-2.51-3.87-2.59-6.23
					c-0.09-2.49,0.74-4.84,2.34-6.64c0.71-0.8,1.53-1.45,2.43-1.93c0.04-0.5,0.06-0.75,0.1-1.25c0.01-0.16,0.02-0.33,0.04-0.49
					c0.14-1.81,0.7-3.62,1.77-5.11c1.19-1.66,2.84-2.78,4.72-3.27c0.67-0.18,1.37-0.27,2.07-0.27c0.63,0,1.26,0.08,1.88,0.23
					c1.43,0.35,2.75,1.09,3.83,2.16c0.04,0.04,0.06,0.06,0.1,0.1c0.04,0.04,0.06,0.06,0.1,0.11c0.35,0.38,0.7,0.83,1.13,1.45
					c0.74,1.08,1.57,2.87,1.48,5.39c1.18,0.41,2.27,1.1,3.2,2.04c1.21,1.23,2.05,2.78,2.43,4.48c0.74,0.44,1.42,0.99,2.03,1.65
					c1.63,1.79,2.48,4.14,2.41,6.61c-0.05,1.81-0.35,3.58-0.93,5.25c-0.58,1.68-1.4,3.23-2.44,4.61c-0.04,0.05-0.05,0.07-0.09,0.12
					c-2.07,2.61-4.68,4.32-7.7,5.11C260.87,284.32,259.81,284.47,258.75,284.48z"/>
				<path class="st7" d="M271.28,284.3c-0.22,0-0.45-0.01-0.68-0.02c-2.17-0.16-4.09-1.14-5.57-2.8c-1.45-1.63-2.26-3.71-2.34-6
					c-0.13-7.77-0.26-15.55-0.39-23.32c-0.07-2.51,0.81-4.87,2.47-6.64c1.56-1.66,3.62-2.61,5.83-2.69c0.11,0,0.22-0.01,0.33,0
					c2.25,0.01,4.37,0.96,5.96,2.67c0.64,0.69,1.17,1.47,1.58,2.32c0.2-0.01,0.4-0.02,0.6-0.02c0.18,0,0.35,0.01,0.52,0.02
					c2.64,0.18,5.09,1.32,7.09,3.29c0.04,0.04,0.06,0.06,0.1,0.1c1.16,1.19,2.19,2.7,3.06,4.46c0.02,0.04,0.03,0.06,0.05,0.11
					c1.07,2.26,1.91,5,2.59,8.37c0.25,1.27,0.48,2.52,0.65,3.73c0.18,1.18,0.32,2.26,0.42,3.22c0.1,0.93,0.17,1.68,0.22,2.26
					c0.05,0.6,0.08,0.91,0.09,1.15c0.12,2.35-0.62,4.65-2.12,6.48c-1.49,1.82-3.55,2.94-5.78,3.16c-0.1,0.01-0.14,0.01-0.24,0.02
					c-0.17,0-0.25,0-0.42,0.01c-2.2,0.03-4.29-0.83-5.88-2.41c-0.44-0.44-0.82-0.91-1.16-1.42c-0.46,0.71-1.01,1.35-1.65,1.92
					C275.11,283.57,273.26,284.29,271.28,284.3z"/>
				<g>
					<path class="st8" d="M184.07,306.05c0.12,1.26,0.19,2.48,0.25,3.63c0.06,1.15,0.08,2.17,0.08,3.04c0,0.88-0.01,1.58-0.02,2.11
						c-0.01,0.53-0.02,0.81-0.02,0.84c-0.06,0.74-0.34,1.36-0.85,1.85c-0.51,0.49-1.13,0.71-1.85,0.66c-0.05,0-0.07,0-0.12-0.01
						c-0.75-0.1-1.37-0.45-1.87-1.04c-0.5-0.59-0.73-1.27-0.7-2.04c0.03-0.74,0.04-1.42,0.04-2.03c0-0.61-0.01-1.34-0.04-2.19
						c-0.03-0.84-0.07-1.74-0.12-2.69c-0.91,0.01-1.81,0.01-2.7,0c-0.88-0.01-1.77-0.04-2.65-0.09c-1.13-0.07-2.24-0.15-3.34-0.26
						c-1.09-0.11-2.18-0.22-3.25-0.35c-0.14,0.98-0.24,1.89-0.31,2.75c-0.07,0.85-0.12,1.6-0.14,2.23
						c-0.03,0.63-0.05,1.33-0.08,2.08c-0.03,0.73-0.3,1.34-0.83,1.84c-0.52,0.49-1.15,0.71-1.86,0.66c-0.02,0-0.02,0-0.04,0
						c-0.75-0.09-1.38-0.43-1.91-1.01c-0.52-0.59-0.77-1.24-0.74-1.97c0-0.06,0.01-0.45,0.04-1.19c0.03-0.74,0.08-1.68,0.17-2.84
						c0.08-1.15,0.22-2.46,0.41-3.91c0.19-1.45,0.46-2.94,0.79-4.46c0.8-3.79,1.88-6.76,3.23-8.92c0.61-1.01,1.26-1.84,1.95-2.47
						c0.69-0.63,1.37-1.12,2.05-1.47c0.68-0.34,1.33-0.57,1.97-0.69c0.64-0.12,1.23-0.17,1.78-0.15c2.24,0.08,4.19,1.01,5.8,2.81
						c1.49,1.66,2.69,4.1,3.52,7.22C183.31,300.28,183.78,303.01,184.07,306.05z M167.86,302.09c1.74,0.18,3.47,0.33,5.18,0.45
						c1.71,0.12,3.45,0.15,5.22,0.09c-0.66-3.94-1.66-6.67-2.99-8.17c-0.55-0.62-1.19-0.94-1.91-0.97
						c-0.75-0.03-1.42,0.25-2.01,0.85c-0.59,0.6-1.12,1.34-1.57,2.22c-0.46,0.88-0.84,1.82-1.16,2.82
						C168.31,300.38,168.05,301.29,167.86,302.09z"/>
				</g>
				<g>
					<path class="st9" d="M189.67,318.74c-0.58-0.03-1.09-0.26-1.52-0.69c-0.43-0.42-0.66-0.96-0.72-1.59
						c-0.18-2.1-0.31-4.15-0.3-6.09c0.01-1.94,0.04-3.95,0.09-6c0.04-1.67,0.09-3.37,0.12-5.11c0.04-1.73,0-3.56-0.12-5.45
						c-0.04-0.65,0.14-1.22,0.56-1.69c0.42-0.47,0.94-0.72,1.57-0.75c0.63-0.03,1.18,0.19,1.64,0.65c0.47,0.46,0.73,1.02,0.77,1.65
						c0.13,1.99,0.16,3.9,0.12,5.71c-0.04,1.8-0.08,3.58-0.12,5.33c-0.05,1.97-0.08,3.9-0.09,5.77c-0.01,1.88,0.1,3.82,0.26,5.79
						c0.05,0.63-0.13,1.2-0.52,1.69c-0.4,0.49-0.9,0.76-1.5,0.8C189.81,318.75,189.76,318.75,189.67,318.74z"/>
				</g>
				<g>
					<path class="st10" d="M210.75,296.83c1.12,1.24,1.98,2.74,2.57,4.44c0.59,1.7,0.87,3.54,0.82,5.52
						c-0.04,1.83-0.35,3.56-0.91,5.17c-0.53,1.52-1.27,2.88-2.2,4.01c-0.95,1.15-2.08,2.03-3.29,2.62c-1.21,0.6-2.46,0.87-3.74,0.81
						c-0.93-0.04-1.88-0.27-2.8-0.71c-0.65-0.31-1.24-0.72-1.75-1.18c-0.05,1.71-0.09,3.32-0.12,4.83c-0.04,1.51-0.1,2.83-0.19,3.94
						c-0.05,0.63-0.29,1.15-0.72,1.54c-0.43,0.39-0.95,0.57-1.56,0.54c-0.07,0-0.1-0.01-0.17-0.01c-0.63-0.08-1.15-0.39-1.56-0.91
						c-0.41-0.52-0.59-1.12-0.54-1.77c0.07-1.07,0.13-2.36,0.19-3.86c0.06-1.5,0.1-3.12,0.12-4.85c0.02-1.73,0.03-3.55,0.02-5.44
						c-0.01-1.89-0.02-3.76-0.04-5.61c-0.01-1.85-0.04-3.62-0.07-5.34c-0.04-1.71-0.05-3.29-0.09-4.69
						c-0.02-0.65,0.18-1.22,0.61-1.69c0.43-0.46,0.96-0.7,1.59-0.71c0.61-0.01,1.13,0.2,1.57,0.63c0.44,0.43,0.69,0.95,0.73,1.56
						c1.51-1.36,3.23-2.01,5.14-1.97c1.17,0.03,2.32,0.31,3.43,0.86C208.88,295.11,209.88,295.87,210.75,296.83z M209.59,306.58
						c0.02-1.33-0.15-2.55-0.51-3.64c-0.36-1.1-0.89-2.05-1.59-2.82c-0.94-1.04-1.99-1.57-3.11-1.6c-1.07-0.03-1.96,0.46-2.66,1.47
						c-0.37,0.48-0.73,1.24-1.07,2.27c-0.34,1.03-0.52,2.46-0.54,4.27c-0.02,1.62,0.12,3.03,0.44,4.23c0.31,1.2,0.77,2.14,1.38,2.8
						c0.61,0.66,1.29,1.01,2.06,1.04c0.61,0.02,1.22-0.13,1.85-0.47c0.63-0.33,1.2-0.81,1.71-1.44c0.63-0.77,1.12-1.67,1.47-2.71
						C209.38,308.95,209.57,307.81,209.59,306.58z"/>
				</g>
				<g>
					<path class="st11" d="M232.69,320.19c-0.61-0.01-1.13-0.24-1.56-0.68c-0.43-0.44-0.67-0.99-0.72-1.64
						c-0.07-0.95-0.15-1.81-0.23-2.58c-0.08-0.77-0.19-1.66-0.31-2.66c-0.13-1-0.3-2.02-0.51-3.07c-0.49-2.4-1.03-4.29-1.61-5.67
						c-0.35-0.83-0.64-1.37-0.87-1.62c-0.23-0.25-0.37-0.39-0.42-0.42c-0.05,0.02-0.21,0.16-0.49,0.4c-0.28,0.24-0.65,0.8-1.12,1.66
						c-0.72,1.36-1.42,3.23-2.1,5.63c-0.3,1.04-0.57,2.06-0.8,3.06c-0.23,1-0.43,1.9-0.59,2.69c-0.16,0.79-0.32,1.68-0.49,2.63
						c-0.11,0.61-0.4,1.11-0.84,1.49c-0.44,0.37-0.97,0.53-1.57,0.46c-0.58-0.07-1.07-0.33-1.47-0.79c-0.4-0.46-0.61-1.01-0.63-1.65
						c-0.13-7.69-0.26-15.37-0.38-23.06c-0.02-0.67,0.19-1.24,0.63-1.7c0.44-0.46,0.98-0.7,1.61-0.72c0.63-0.01,1.17,0.22,1.61,0.69
						c0.44,0.48,0.68,1.05,0.7,1.72c0.06,3.04,0.08,4.56,0.14,7.6c0.09-0.2,0.19-0.39,0.28-0.57c0.09-0.18,0.2-0.37,0.31-0.57
						c0.33-0.57,0.66-1.06,1-1.49c0.34-0.43,0.69-0.8,1.07-1.12c0.65-0.54,1.27-0.88,1.84-1.04c0.57-0.15,1.06-0.22,1.45-0.19
						c1.19,0.09,2.27,0.6,3.18,1.53c0.68,0.69,1.29,1.64,1.85,2.79c0.82,1.76,1.5,4.05,2.06,6.87c0.23,1.18,0.43,2.32,0.59,3.43
						c0.16,1.11,0.29,2.11,0.39,2.98c0.09,0.88,0.16,1.59,0.21,2.14c0.05,0.55,0.07,0.85,0.07,0.9c0.05,0.65-0.14,1.23-0.56,1.73
						c-0.42,0.51-0.93,0.78-1.54,0.82C232.79,320.19,232.76,320.19,232.69,320.19z"/>
				</g>
				<path class="st7" d="M261.33,327c-0.09-0.01-0.14-0.01-0.23-0.02c-2.3-0.16-4.39-1.28-5.88-3.14c-1.47-1.84-2.2-4.21-2.03-6.65
					c0.14-1.96,0.26-3.96,0.36-5.96c0.1-1.95,0.17-3.9,0.22-5.8c0.04-1.9,0.07-3.77,0.09-5.57c0.01-1.74,0-3.4-0.05-4.94
					c-0.08-2.46,0.77-4.85,2.41-6.66c1.56-1.72,3.65-2.72,5.88-2.82c0.1,0,0.21-0.01,0.32-0.01c2.2-0.01,4.29,0.89,5.89,2.54
					c0.52,0.54,0.98,1.14,1.35,1.79c0.08,0,0.15,0,0.23,0c2.02-0.02,4.02,0.45,5.95,1.39c0.06,0.03,0.09,0.05,0.15,0.08
					c0.06,0.03,0.09,0.05,0.15,0.08c1.67,0.93,3.18,2.2,4.49,3.78c0.04,0.04,0.06,0.07,0.09,0.11c0.03,0.05,0.05,0.07,0.09,0.12
					c2.44,3.21,3.76,7.31,3.93,12.23c0,0.03,0,0.04,0,0.07c0.03,1.33-0.04,2.63-0.2,3.88c-0.17,1.3-0.46,2.57-0.84,3.77
					c-0.78,2.45-1.99,4.66-3.6,6.49c-1.34,1.52-2.9,2.71-4.62,3.55c-1.76,0.86-3.63,1.31-5.56,1.35c-1.49,0.03-2.95-0.2-4.35-0.67
					c-1.18,0.65-2.49,1.01-3.84,1.03C261.57,327,261.49,327,261.33,327z"/>
				<g>
					<path class="st8" d="M259.46,317.66c0.14-2.02,0.26-4.06,0.37-6.09c0.1-2.04,0.18-4.04,0.23-6c0.05-1.96,0.08-3.86,0.09-5.7
						s0-3.57-0.05-5.19c-0.02-0.67,0.19-1.26,0.63-1.75c0.44-0.49,0.98-0.75,1.61-0.78c0.61-0.03,1.14,0.19,1.59,0.66
						c0.45,0.47,0.69,1.03,0.72,1.68c0.02,0.67,0.04,1.37,0.04,2.08c0,0.71,0.01,1.44,0.04,2.19c0.51-0.53,1.13-1,1.85-1.4
						c1.06-0.59,2.18-0.88,3.32-0.89c1.1-0.01,2.24,0.23,3.29,0.78c0.99,0.52,1.91,1.33,2.73,2.31c1.59,2.09,2.46,4.89,2.55,8.35
						c0.03,0.96-0.02,1.9-0.14,2.78c-0.12,0.89-0.3,1.73-0.56,2.53c-0.49,1.55-1.22,2.9-2.2,4c-0.74,0.84-1.6,1.49-2.57,1.96
						c-0.97,0.47-1.99,0.71-3.06,0.73c-1.05,0.02-2.06-0.19-3.03-0.62c-0.97-0.43-1.85-1.07-2.64-1.91
						c-0.08-0.09-0.13-0.13-0.21-0.22c0,0.13-0.01,0.26-0.02,0.41c-0.01,0.15-0.03,0.29-0.05,0.41c-0.05,0.65-0.29,1.19-0.72,1.62
						c-0.43,0.43-0.94,0.65-1.52,0.65c-0.07,0-0.1,0-0.17,0c-0.63-0.04-1.15-0.32-1.56-0.83
						C259.6,318.93,259.41,318.34,259.46,317.66z M267.48,313.94c0.72,0.76,1.54,1.14,2.45,1.12c0.89-0.01,1.68-0.4,2.38-1.16
						c0.56-0.61,0.98-1.41,1.26-2.4c0.28-0.99,0.39-2.12,0.35-3.39c-0.05-1.49-0.23-2.67-0.56-3.52c-0.33-0.85-0.66-1.49-0.98-1.91
						c-0.33-0.43-0.71-0.78-1.14-1.01c-0.43-0.23-0.88-0.34-1.35-0.34c-0.98,0.01-1.83,0.51-2.55,1.49
						c-0.35,0.45-0.69,1.12-1.01,1.99c-0.33,0.88-0.51,2.06-0.53,3.52C265.78,310.82,266.36,312.71,267.48,313.94z"/>
				</g>
				<g>
					<path class="st9" d="M289.73,319.68c-1.12,0.04-2.18-0.11-3.18-0.45c-2.1-0.72-3.69-2.19-4.79-4.32
						c-1.16-2.24-1.68-5.13-1.47-8.6c0.11-1.84,0.41-3.53,0.89-5.06c0.48-1.54,1.14-2.87,1.98-4c0.79-1.08,1.75-1.97,2.83-2.58
						c1.11-0.62,2.31-0.93,3.46-0.92c1.18,0.01,2.34,0.33,3.36,0.93c1.06,0.63,1.97,1.56,2.69,2.63c0.75,1.11,1.35,2.44,1.75,3.97
						c0.4,1.54,0.64,3.25,0.66,5.07c0.01,0.68-0.24,1.33-0.73,1.83c-0.48,0.49-1.1,0.72-1.75,0.69c-1.25-0.07-2.51-0.07-3.76,0.03
						c-1.25,0.1-2.56,0.2-3.86,0.36c-0.46,0.05-0.94,0.11-1.43,0.15c-0.49,0.04-0.98,0.08-1.47,0.11c0.14,1.19,0.44,2.19,0.84,2.99
						c0.52,1.03,1.29,1.78,2.31,2.12c1.05,0.35,2.22,0.3,3.43-0.11c0.54-0.17,1.01-0.4,1.43-0.7c0.42-0.3,0.75-0.62,0.98-0.98
						c0.35-0.55,0.83-0.9,1.45-1.03c0.62-0.13,1.19,0,1.7,0.36c0.5,0.35,0.82,0.85,0.93,1.49c0.1,0.65-0.02,1.25-0.37,1.8
						c-0.54,0.81-1.22,1.52-2.05,2.13c-0.83,0.61-1.75,1.11-2.78,1.5c-0.51,0.17-1.02,0.3-1.52,0.41
						C290.75,319.6,290.24,319.66,289.73,319.68z M289.27,298.57c-0.93,0.02-1.78,0.56-2.55,1.62c-0.33,0.43-0.65,1-0.96,1.71
						c-0.31,0.71-0.57,1.64-0.75,2.79c0.4-0.03,0.8-0.07,1.22-0.1c0.42-0.03,0.85-0.1,1.26-0.14c0.9-0.1,1.87-0.15,2.8-0.24
						c0.93-0.09,1.89-0.14,2.87-0.17c-0.14-0.96-0.34-1.75-0.59-2.37c-0.26-0.62-0.51-1.13-0.77-1.52
						c-0.72-1.07-1.55-1.59-2.48-1.57C289.3,298.57,289.29,298.57,289.27,298.57z"/>
				</g>
				<g>
					<path class="st10" d="M316.99,307.34c0.63-0.01,1.16,0.21,1.61,0.66c0.44,0.45,0.65,1,0.63,1.65c-0.03,1.06-0.2,2.08-0.54,3.05
						c-0.34,0.97-0.81,1.86-1.41,2.67c-1.19,1.52-2.64,2.54-4.37,3.05c-0.56,0.18-1.12,0.28-1.68,0.31
						c-0.89,0.05-1.68-0.07-2.38-0.34c-1.44-0.51-2.53-1.48-3.25-2.91c-0.42-0.83-0.75-1.93-1-3.27c-0.24-1.35-0.39-2.97-0.44-4.88
						c-0.82,0.06-1.24,0.09-2.06,0.15c0,0.02-0.02,0.04-0.07,0.04c-0.61,0.02-1.13-0.18-1.57-0.62c-0.44-0.44-0.68-0.97-0.7-1.61
						c-0.02-0.66,0.18-1.24,0.61-1.73c0.43-0.49,0.95-0.76,1.56-0.81c0.91-0.08,1.36-0.11,2.27-0.19c0.05-1.42,0.12-2.7,0.21-3.84
						c0.09-1.14,0.16-1.99,0.21-2.56c0-0.07,0.01-0.15,0.02-0.22c0.01-0.07,0.02-0.13,0.02-0.18c0-0.54,0.16-1.02,0.47-1.46
						c0.31-0.44,0.74-0.72,1.24-0.86c0.35-0.1,0.7-0.12,1.07-0.05c0.36,0.07,0.68,0.24,0.96,0.5c0.12,0.12,0.29,0.33,0.51,0.64
						c0.22,0.31,0.31,0.75,0.26,1.31c0,0.07,0,0.11,0,0.18c0,0.05-0.01,0.11-0.02,0.18c-0.01,0.07-0.02,0.16-0.02,0.26
						c-0.05,0.49-0.11,1.25-0.19,2.27c-0.08,1.03-0.15,2.19-0.19,3.48c1.58-0.12,2.37-0.18,3.95-0.3c0.63-0.07,1.17,0.1,1.62,0.53
						c0.45,0.43,0.68,0.98,0.72,1.62c0.03,0.64-0.15,1.22-0.58,1.72c-0.43,0.49-0.96,0.77-1.59,0.82c-1.66,0.15-2.49,0.22-4.16,0.37
						c0.02,1.02,0.08,1.89,0.16,2.61c0.08,0.71,0.16,1.31,0.24,1.8c0.08,0.48,0.17,0.86,0.26,1.14c0.09,0.28,0.17,0.47,0.24,0.59
						c0.28,0.55,0.65,0.84,1.1,0.88c0.45,0.04,0.83,0.01,1.14-0.08c0.7-0.21,1.34-0.65,1.92-1.34c0.58-0.68,0.88-1.62,0.91-2.77
						c0.02-0.63,0.26-1.19,0.7-1.67c0.44-0.48,0.97-0.74,1.57-0.77C316.97,307.34,316.98,307.34,316.99,307.34z M304.73,296.38
						c0-0.02-0.01-0.04-0.02-0.04c-0.01,0-0.02-0.01-0.02-0.04c0.05,0.19,0.09,0.34,0.12,0.44
						C304.85,296.84,304.82,296.72,304.73,296.38z"/>
				</g>
				<g>
					<path class="st11" d="M329.84,317.46c-1.21,0.09-2.4,0-3.56-0.25c-1.27-0.27-2.37-0.72-3.26-1.36
						c-0.9-0.64-1.55-1.43-1.97-2.36c-0.26-0.59-0.27-1.19-0.05-1.8c0.22-0.61,0.62-1.07,1.2-1.37c0.58-0.3,1.16-0.35,1.75-0.15
						c0.58,0.19,1,0.58,1.26,1.16c0.14,0.3,0.43,0.57,0.86,0.81c0.43,0.24,0.95,0.42,1.57,0.55c0.62,0.13,1.29,0.18,2.01,0.15
						c0.72-0.02,1.44-0.14,2.16-0.36c0.14-0.03,0.34-0.1,0.61-0.2c0.27-0.1,0.53-0.23,0.8-0.39c0.27-0.16,0.49-0.35,0.68-0.56
						c0.19-0.21,0.28-0.46,0.28-0.75c0-0.07-0.03-0.19-0.09-0.35c-0.06-0.16-0.29-0.36-0.68-0.59c-0.42-0.25-0.93-0.5-1.54-0.72
						c-0.6-0.22-1.25-0.44-1.92-0.66c-0.93-0.31-1.85-0.66-2.76-1.02c-0.91-0.35-1.76-0.82-2.55-1.4c-2.07-1.49-3.11-3.56-3-6.08
						c0.09-2.12,0.9-3.89,2.34-5.18c1.21-1.08,2.77-1.74,4.57-2.02c1.02-0.15,2.06-0.17,3.12-0.04c1.06,0.13,2.09,0.37,3.05,0.74
						c1.16,0.43,2.1,1.01,2.82,1.71c0.72,0.69,1.18,1.5,1.39,2.36c0.15,0.6,0.08,1.18-0.26,1.74c-0.34,0.56-0.82,0.95-1.41,1.14
						c-0.59,0.18-1.17,0.11-1.69-0.19c-0.52-0.3-0.87-0.76-1.03-1.36c-0.05-0.12-0.22-0.29-0.51-0.51
						c-0.29-0.22-0.74-0.43-1.34-0.64c-0.65-0.23-1.33-0.37-2.04-0.42c-0.71-0.05-1.38,0.01-1.97,0.15
						c-0.59,0.13-1.08,0.29-1.41,0.51c-0.34,0.22-0.59,0.45-0.75,0.68c-0.16,0.24-0.26,0.47-0.3,0.71
						c-0.04,0.24-0.05,0.44-0.05,0.58c-0.01,0.47,0.06,0.89,0.24,1.24c0.19,0.35,0.5,0.68,0.94,0.99c0.53,0.38,1.18,0.71,1.94,1.01
						c0.76,0.29,1.52,0.6,2.29,0.87c0.75,0.27,1.53,0.53,2.28,0.81c0.76,0.27,1.45,0.62,2.08,1.03c1.79,1.12,2.71,2.6,2.75,4.48
						c0.04,1.74-0.59,3.25-1.92,4.52c-1.04,1-2.37,1.74-3.98,2.22c-0.47,0.15-0.95,0.28-1.45,0.38
						C330.86,317.36,330.35,317.42,329.84,317.46z"/>
				</g>
				<linearGradient id="SVGID_1_" gradientUnits="userSpaceOnUse" x1="192.6482" y1="179.4158" x2="232.8022" y2="238.59">
					<stop  offset="0.1245" style="stop-color:#F19554"/>
					<stop  offset="0.3076" style="stop-color:#E77D3E"/>
					<stop  offset="0.5932" style="stop-color:#DB5D20"/>
					<stop  offset="0.8342" style="stop-color:#D34A0E"/>
					<stop  offset="1" style="stop-color:#D04308"/>
				</linearGradient>
				<path class="st12" d="M206.36,233.82c-1.06-0.07-1.96-0.5-2.68-1.29c-0.73-0.8-1.03-1.77-0.97-2.87
					c0.29-5.54,0.27-11.49,0.21-17.54c-0.06-6.05-0.2-11.9-0.56-17.39c-0.07-1.07,0.24-2.04,0.94-2.91
					c0.71-0.86,1.57-1.36,2.59-1.49c3.46-0.45,6.68-0.49,9.67-0.12c2.99,0.37,5.7,1.13,8.08,2.29c2.36,1.14,4.29,2.6,5.78,4.34
					c0.83,0.95,1.48,1.98,1.95,3.09c0.47,1.11,0.83,2.29,0.94,3.42c0.06,0.61,0.03,1.41-0.03,2.33c-0.06,0.93-0.3,1.93-0.71,3.01
					c-0.41,1.08-1.05,2.21-1.92,3.4c-0.87,1.19-2.05,2.36-3.54,3.52c-3.78,2.91-8.97,5.1-15.58,6.58c-0.04,1.29-0.07,2.58-0.09,3.85
					c-0.02,1.27-0.09,2.55-0.15,3.78c-0.05,1.07-0.42,2.02-1.15,2.8c-0.73,0.78-1.6,1.18-2.62,1.2
					C206.47,233.82,206.43,233.82,206.36,233.82z M210.2,198.14c0.24,5.12,0.35,10.36,0.35,15.74c2.95-0.75,5.32-1.56,7.11-2.43
					c1.79-0.88,3.14-1.71,4.04-2.41c0.99-0.78,1.8-1.57,2.33-2.38c0.53-0.81,0.75-1.55,0.68-2.22c-0.09-0.79-0.5-1.58-1.27-2.36
					c-0.77-0.78-1.78-1.47-3.04-2.06C217.65,198.7,214.24,198.07,210.2,198.14z"/>
				
					<linearGradient id="SVGID_00000116951881011615626150000017387074190224431531_" gradientUnits="userSpaceOnUse" x1="224.3311" y1="185.6795" x2="250.5595" y2="238.9961">
					<stop  offset="0" style="stop-color:#1490CF"/>
					<stop  offset="0.3988" style="stop-color:#179FDD"/>
					<stop  offset="1" style="stop-color:#1EBCF9"/>
				</linearGradient>
				<path style="fill:url(#SVGID_00000116951881011615626150000017387074190224431531_);" d="M238.77,233.62
					c-0.78,0-1.46-0.27-2.04-0.82c-0.58-0.55-0.89-1.27-0.96-2.13c-0.24-2.88-0.42-5.7-0.4-8.38c0.02-2.68,0.05-5.45,0.12-8.28
					c0.06-2.3,0.12-4.66,0.16-7.06c0.05-2.39,0-4.91-0.16-7.5c-0.06-0.9,0.19-1.69,0.75-2.37c0.56-0.68,1.27-1.05,2.11-1.13
					c0.84-0.08,1.58,0.19,2.21,0.81c0.63,0.61,0.98,1.36,1.03,2.23c0.18,2.72,0.21,5.36,0.16,7.84c-0.05,2.48-0.11,4.93-0.16,7.34
					c-0.07,2.71-0.1,5.36-0.12,7.94c-0.02,2.58,0.13,5.25,0.35,7.94c0.07,0.86-0.17,1.66-0.7,2.36c-0.53,0.71-1.2,1.11-2.02,1.21
					C238.96,233.62,238.9,233.62,238.77,233.62z"/>
				
					<linearGradient id="SVGID_00000143609681630529716420000018250225971033314703_" gradientUnits="userSpaceOnUse" x1="250.8054" y1="197.9735" x2="272.9577" y2="239.7221">
					<stop  offset="0" style="stop-color:#F7D952"/>
					<stop  offset="0.024" style="stop-color:#F7D850"/>
					<stop  offset="0.6695" style="stop-color:#F3C726"/>
					<stop  offset="1" style="stop-color:#F2C016"/>
				</linearGradient>
				<path style="fill:url(#SVGID_00000143609681630529716420000018250225971033314703_);" d="M271.9,230.19
					c0.06,0.9-0.18,1.69-0.73,2.37c-0.55,0.68-1.24,1.05-2.09,1.11c-0.09,0-0.14,0-0.23,0c-0.81-0.01-1.51-0.29-2.09-0.87
					c-0.58-0.57-0.93-1.32-0.96-2.16c-0.01-0.23-0.02-0.42-0.05-0.55c-0.03,0.07-0.09,0.15-0.19,0.25c-0.5,0.57-1.04,1.05-1.62,1.45
					c-0.58,0.4-1.18,0.75-1.81,1.04c-1.35,0.53-2.66,0.79-3.94,0.79c-0.81,0-1.6-0.1-2.37-0.28c-0.77-0.19-1.55-0.46-2.32-0.83
					c-0.75-0.36-1.46-0.82-2.14-1.33c-0.67-0.52-1.31-1.11-1.9-1.79c-1.57-1.71-2.73-3.73-3.5-6.05c-0.77-2.33-1.15-4.89-1.06-7.56
					c0.04-1.22,0.19-2.45,0.38-3.62c0.19-1.17,0.47-2.3,0.84-3.37c0.72-2.08,1.7-3.89,2.91-5.44c1.22-1.56,2.63-2.79,4.22-3.64
					c1.6-0.85,3.24-1.27,4.93-1.26c2.57,0.02,4.82,0.98,6.76,2.88c0.12-0.8,0.48-1.47,1.06-1.99c0.58-0.53,1.26-0.77,2.04-0.72
					c0.81,0.05,1.52,0.4,2.11,1.06c0.59,0.66,0.87,1.45,0.84,2.35c-0.17,5.26-0.13,10.28,0.09,15.01
					C271.32,221.75,271.59,226.14,271.9,230.19z M261.25,225.69c0.81-0.9,1.44-2.16,1.88-3.78c0.44-1.62,0.66-3.52,0.66-5.69
					c0-1.71-0.14-3.25-0.42-4.62c-0.28-1.38-0.67-2.56-1.15-3.55c-0.48-0.99-1.06-1.75-1.74-2.28c-0.67-0.52-1.43-0.79-2.28-0.8
					c-0.81-0.01-1.64,0.24-2.49,0.74c-0.84,0.5-1.6,1.23-2.28,2.18c-0.67,0.95-1.24,2.11-1.69,3.47c-0.45,1.36-0.68,2.91-0.73,4.6
					c-0.05,1.8,0.15,3.48,0.63,5c0.49,1.53,1.21,2.83,2.18,3.9c0.63,0.71,1.32,1.25,2.09,1.64c0.77,0.39,1.53,0.58,2.28,0.59
					C259.39,227.08,260.4,226.62,261.25,225.69z"/>
				
					<linearGradient id="SVGID_00000021839206020561802990000001003310731373759416_" gradientUnits="userSpaceOnUse" x1="274.3602" y1="194.9173" x2="298.3187" y2="242.4064">
					<stop  offset="0" style="stop-color:#FF3AC5"/>
					<stop  offset="1" style="stop-color:#D048B1"/>
				</linearGradient>
				<path style="fill:url(#SVGID_00000021839206020561802990000001003310731373759416_);" d="M295.54,199.89
					c0.81,0.3,1.41,0.84,1.78,1.63c0.38,0.79,0.44,1.61,0.19,2.45c-1,3.26-1.87,6.26-2.6,9.01c-0.73,2.75-1.42,5.36-2.04,7.82
					c-0.53,2.1-1.06,4.14-1.57,6.12c-0.52,1.98-1.07,3.93-1.66,5.86c-0.59,1.93-1.24,3.87-1.95,5.82c-0.7,1.95-1.51,3.93-2.42,5.95
					c-0.25,0.56-0.63,1.01-1.13,1.34c-0.5,0.33-1.03,0.49-1.59,0.49c-0.47,0-0.91-0.11-1.31-0.31c-0.78-0.37-1.31-0.98-1.57-1.83
					c-0.27-0.85-0.23-1.69,0.12-2.52c0.59-1.29,1.13-2.58,1.62-3.86c0.48-1.28,0.95-2.54,1.38-3.8c-0.03-0.03-0.05-0.08-0.05-0.15
					c-0.91-2.71-1.65-5.33-2.23-7.87c-0.58-2.54-1.13-5.13-1.67-7.72c-0.46-2.2-0.99-4.56-1.55-7.05c-0.56-2.49-1.25-5.27-2.06-8.32
					c-0.25-0.87-0.17-1.69,0.23-2.45c0.41-0.76,1.03-1.28,1.83-1.51c0.79-0.22,1.59-0.09,2.32,0.36c0.73,0.45,1.23,1.1,1.48,1.94
					c0.81,3.12,1.51,5.95,2.09,8.51c0.58,2.56,1.1,4.95,1.57,7.19c0.22,1,0.43,1.98,0.63,2.93c0.2,0.95,0.41,1.91,0.63,2.88
					c0.16-0.63,0.32-1.25,0.49-1.86c0.17-0.61,0.34-1.24,0.49-1.91c0.63-2.51,1.31-5.17,2.06-7.98c0.75-2.81,1.63-5.89,2.63-9.23
					c0.25-0.85,0.75-1.46,1.5-1.83C293.95,199.63,294.73,199.59,295.54,199.89z"/>
				<g>
					<path class="st16" d="M229.91,277.66c-0.37,0-0.81-0.12-1.31-0.34c-0.5-0.23-0.97-0.72-1.42-1.47
						c-0.21-0.4-0.42-0.88-0.63-1.44c-0.21-0.56-0.43-1.27-0.66-2.11c-0.21-0.77-0.44-1.69-0.68-2.75
						c-0.24-1.06-0.53-2.31-0.86-3.75c-0.23,1.02-0.46,1.96-0.68,2.81c-0.22,0.86-0.45,1.66-0.68,2.4
						c-0.26,0.84-0.51,1.59-0.75,2.23c-0.24,0.65-0.48,1.22-0.72,1.71c-0.23,0.47-0.54,0.95-0.91,1.43
						c-0.37,0.48-0.87,0.82-1.47,0.98c-0.76,0.2-1.49,0.05-2.13-0.43c-0.68-0.5-1.21-1.41-1.61-2.73c-0.16-0.5-0.31-1.07-0.45-1.71
						c-0.14-0.64-0.29-1.4-0.45-2.27c-0.33-1.76-0.66-3.93-1-6.52c-0.34-2.59-0.69-5.61-1.07-9.07c-0.07-0.64,0.09-1.22,0.49-1.75
						c0.4-0.52,0.91-0.82,1.54-0.9c0.63-0.08,1.19,0.09,1.68,0.5c0.49,0.41,0.77,0.95,0.84,1.62c0.33,3.07,0.64,5.79,0.93,8.15
						c0.29,2.36,0.58,4.38,0.86,6.07c0.04,0.22,0.06,0.34,0.11,0.56c0.05-0.12,0.08-0.23,0.09-0.32c0.01-0.09,0.04-0.19,0.09-0.32
						c0.51-1.79,1.03-3.89,1.54-6.33c0.51-2.43,1.04-5.17,1.57-8.2c0.09-0.57,0.35-1.04,0.77-1.42c0.42-0.37,0.9-0.56,1.43-0.56
						c0.54,0,1.01,0.18,1.43,0.54c0.42,0.36,0.69,0.83,0.8,1.4c0.68,3.58,1.27,6.59,1.77,9c0.5,2.42,0.94,4.41,1.31,5.98
						c0.05,0.2,0.08,0.34,0.11,0.41c0.02-0.12,0.05-0.26,0.07-0.39c0.02-0.14,0.05-0.28,0.07-0.43c0.3-1.72,0.61-3.79,0.91-6.21
						c0.3-2.42,0.62-5.21,0.94-8.38c0.07-0.67,0.35-1.22,0.84-1.65c0.49-0.42,1.05-0.6,1.68-0.53c0.63,0.07,1.14,0.37,1.52,0.9
						c0.38,0.52,0.55,1.12,0.51,1.8c-0.4,3.8-0.78,7.06-1.14,9.79c-0.36,2.73-0.74,5.03-1.1,6.87c-0.36,1.79-0.71,3.17-1.09,4.11
						c-0.07,0.15-0.16,0.35-0.28,0.62c-0.12,0.26-0.28,0.54-0.49,0.82c-0.21,0.29-0.47,0.55-0.77,0.78
						c-0.3,0.24-0.66,0.39-1.08,0.46c-0.05,0-0.11,0.01-0.19,0.02C230.1,277.65,230.01,277.66,229.91,277.66z"/>
				</g>
				<g>
					<path class="st16" d="M245.14,252.59c0.49,0.6,0.74,1.25,0.74,1.95c0,0.73-0.25,1.39-0.74,1.99c-0.3,0.33-0.64,0.58-1.02,0.75
						c-0.54,0.25-1.15,0.38-1.86,0.38c-0.33,0-0.65-0.03-0.98-0.09c-0.33-0.06-0.62-0.16-0.88-0.28c-0.21-0.1-0.4-0.21-0.56-0.34
						c-0.16-0.12-0.32-0.26-0.46-0.41c-0.49-0.55-0.73-1.21-0.73-1.99c0-0.72,0.24-1.37,0.73-1.95c0.14-0.15,0.29-0.29,0.46-0.41
						c0.16-0.12,0.35-0.24,0.56-0.34c0.26-0.12,0.55-0.22,0.88-0.28c0.33-0.06,0.65-0.09,0.98-0.09c0.7,0,1.34,0.12,1.86,0.37
						C244.49,252.02,244.84,252.29,245.14,252.59z M244.61,261.21c0.25,1.48,0.33,3,0.3,4.5c-0.04,1.5-0.09,2.94-0.16,4.31
						c-0.05,0.95-0.08,1.86-0.1,2.74c-0.02,0.88,0.02,1.61,0.1,2.17c0.1,0.67-0.05,1.28-0.42,1.82c-0.38,0.54-0.88,0.86-1.52,0.95
						c-0.07,0.02-0.19,0.04-0.35,0.04c-0.54,0-1.03-0.2-1.46-0.58c-0.43-0.39-0.71-0.89-0.79-1.48c-0.12-0.84-0.16-1.77-0.14-2.77
						c0.02-1,0.08-2.06,0.14-3.15c0.06-1.23,0.08-2.54,0.11-3.88c0.02-1.34-0.06-2.63-0.25-3.88c-0.1-0.65,0.05-1.25,0.42-1.8
						c0.38-0.55,0.88-0.9,1.48-1.01c0.6-0.11,1.18,0.05,1.69,0.45C244.18,260.04,244.5,260.57,244.61,261.21z"/>
				</g>
				<g>
					<path class="st16" d="M264.53,266.3c0.63,0.02,1.17,0.28,1.61,0.76c0.44,0.49,0.65,1.07,0.63,1.74
						c-0.03,1.09-0.2,2.14-0.54,3.13c-0.34,0.99-0.81,1.88-1.42,2.68c-1.19,1.5-2.65,2.47-4.38,2.9c-0.56,0.15-1.12,0.23-1.68,0.23
						c-0.89,0-1.68-0.16-2.38-0.48c-1.45-0.6-2.53-1.65-3.26-3.15c-0.42-0.87-0.75-2.01-1-3.39c-0.24-1.39-0.39-3.06-0.44-5.01
						c-0.83,0.03-1.24,0.05-2.07,0.08c0,0.03-0.02,0.04-0.07,0.04c-0.61,0-1.13-0.23-1.58-0.69c-0.44-0.46-0.68-1.02-0.7-1.67
						c-0.02-0.67,0.18-1.26,0.61-1.74c0.43-0.49,0.95-0.74,1.56-0.77c0.91-0.04,1.37-0.07,2.28-0.11c0.05-1.45,0.12-2.76,0.21-3.92
						c0.09-1.16,0.16-2.03,0.21-2.61c0-0.08,0.01-0.15,0.02-0.23c0.01-0.07,0.02-0.14,0.02-0.19c0-0.55,0.16-1.04,0.47-1.48
						c0.32-0.44,0.74-0.71,1.24-0.84c0.35-0.09,0.71-0.11,1.07-0.02c0.36,0.09,0.68,0.27,0.96,0.54c0.12,0.13,0.29,0.35,0.51,0.68
						c0.22,0.33,0.31,0.78,0.26,1.35c0,0.07,0,0.11,0,0.19c0,0.05-0.01,0.11-0.02,0.19c-0.01,0.07-0.02,0.16-0.02,0.26
						c-0.05,0.5-0.11,1.27-0.19,2.32c-0.08,1.05-0.15,2.24-0.19,3.56c1.58-0.06,2.37-0.09,3.96-0.15c0.63-0.05,1.17,0.16,1.63,0.62
						c0.46,0.46,0.68,1.04,0.72,1.7c0.03,0.66-0.15,1.26-0.58,1.74c-0.43,0.49-0.96,0.74-1.59,0.77c-1.67,0.08-2.5,0.11-4.17,0.19
						c0.02,1.05,0.08,1.94,0.16,2.68c0.08,0.74,0.16,1.36,0.24,1.86c0.08,0.5,0.17,0.89,0.26,1.18c0.09,0.29,0.18,0.49,0.25,0.62
						c0.28,0.57,0.65,0.89,1.1,0.95c0.46,0.06,0.83,0.05,1.14-0.02c0.7-0.18,1.34-0.6,1.93-1.28c0.58-0.68,0.88-1.62,0.91-2.81
						c0.02-0.64,0.26-1.21,0.7-1.69c0.44-0.47,0.97-0.71,1.57-0.71C264.51,266.3,264.52,266.3,264.53,266.3z M252.24,254.54
						c0-0.02-0.01-0.04-0.02-0.04c-0.01,0-0.02-0.01-0.02-0.04c0.05,0.2,0.09,0.35,0.12,0.45
						C252.37,255.01,252.34,254.89,252.24,254.54z"/>
				</g>
				<g>
					<path class="st16" d="M285.31,277.47c-0.61,0.01-1.13-0.21-1.56-0.64c-0.43-0.43-0.67-0.97-0.72-1.61
						c-0.07-0.94-0.15-1.8-0.23-2.56c-0.08-0.77-0.19-1.65-0.32-2.64c-0.13-0.99-0.3-2.01-0.51-3.05c-0.49-2.38-1.03-4.25-1.61-5.62
						c-0.35-0.82-0.64-1.35-0.87-1.6c-0.23-0.25-0.37-0.38-0.42-0.41c-0.05,0.03-0.21,0.16-0.49,0.41
						c-0.28,0.25-0.65,0.81-1.12,1.68c-0.72,1.37-1.42,3.26-2.1,5.67c-0.3,1.05-0.57,2.07-0.8,3.08c-0.23,1.01-0.43,1.91-0.59,2.71
						c-0.16,0.8-0.32,1.69-0.49,2.65c-0.11,0.62-0.4,1.13-0.84,1.52c-0.44,0.39-0.97,0.56-1.57,0.51c-0.58-0.05-1.07-0.29-1.47-0.74
						c-0.4-0.45-0.61-0.99-0.63-1.64c-0.13-7.73-0.26-15.46-0.38-23.19c-0.02-0.67,0.19-1.25,0.63-1.72
						c0.44-0.47,0.98-0.72,1.61-0.74c0.63-0.02,1.17,0.2,1.61,0.68c0.44,0.47,0.68,1.05,0.7,1.72c0.06,3.05,0.08,4.57,0.14,7.62
						c0.09-0.2,0.19-0.39,0.28-0.58c0.09-0.19,0.2-0.38,0.31-0.58c0.33-0.57,0.66-1.08,1-1.51c0.34-0.43,0.69-0.81,1.07-1.14
						c0.65-0.55,1.27-0.9,1.84-1.06c0.57-0.16,1.06-0.23,1.45-0.2c1.19,0.08,2.27,0.58,3.18,1.5c0.68,0.68,1.29,1.61,1.85,2.75
						c0.82,1.74,1.5,4,2.06,6.8c0.23,1.16,0.43,2.29,0.59,3.39c0.16,1.1,0.29,2.08,0.38,2.95c0.09,0.87,0.16,1.57,0.21,2.11
						c0.05,0.54,0.07,0.84,0.07,0.89c0.05,0.64-0.14,1.22-0.56,1.73c-0.42,0.51-0.93,0.8-1.54,0.85
						C285.42,277.47,285.38,277.47,285.31,277.47z"/>
				</g>
				<g>
					<path class="st16" d="M256.77,317.76c0.05,0.67-0.13,1.27-0.54,1.78c-0.41,0.51-0.93,0.8-1.56,0.85c-0.07,0-0.11,0-0.18,0
						c-0.61,0-1.13-0.21-1.56-0.63c-0.43-0.42-0.7-0.98-0.72-1.61c-0.01-0.17-0.01-0.31-0.03-0.41c-0.02,0.05-0.07,0.11-0.14,0.19
						c-0.37,0.43-0.78,0.79-1.21,1.09c-0.43,0.3-0.88,0.56-1.35,0.79c-1,0.4-1.98,0.6-2.94,0.59c-0.61,0-1.2-0.07-1.77-0.21
						c-0.57-0.14-1.16-0.35-1.73-0.63c-0.56-0.27-1.09-0.61-1.59-1c-0.5-0.39-0.97-0.84-1.42-1.34c-1.17-1.28-2.04-2.8-2.61-4.54
						c-0.57-1.74-0.86-3.65-0.79-5.64c0.03-0.91,0.14-1.82,0.28-2.69c0.14-0.87,0.35-1.71,0.63-2.5c0.54-1.54,1.27-2.89,2.17-4.03
						c0.91-1.16,1.96-2.07,3.15-2.7c1.19-0.63,2.42-0.95,3.68-0.95c1.91,0,3.59,0.7,5.04,2.1c0.09-0.6,0.36-1.1,0.79-1.5
						c0.43-0.4,0.94-0.59,1.52-0.56c0.61,0.02,1.13,0.28,1.58,0.76c0.44,0.49,0.65,1.07,0.63,1.74c-0.13,3.94-0.09,7.69,0.07,11.23
						C256.33,311.45,256.53,314.73,256.77,317.76z M248.82,314.48c0.61-0.67,1.07-1.62,1.4-2.83c0.33-1.21,0.49-2.63,0.49-4.26
						c0-1.28-0.1-2.42-0.31-3.45c-0.21-1.02-0.5-1.91-0.86-2.64c-0.36-0.74-0.79-1.3-1.3-1.69c-0.5-0.39-1.07-0.58-1.7-0.58
						c-0.61,0-1.23,0.18-1.86,0.56c-0.63,0.37-1.2,0.91-1.7,1.62c-0.5,0.71-0.92,1.57-1.26,2.58c-0.34,1.01-0.51,2.16-0.54,3.43
						c-0.04,1.34,0.11,2.59,0.47,3.73c0.36,1.14,0.9,2.11,1.63,2.91c0.47,0.53,0.99,0.94,1.56,1.23c0.57,0.29,1.14,0.44,1.7,0.44
						C247.43,315.52,248.19,315.17,248.82,314.48z"/>
				</g>
			</g>
		</g>
		<g class="st5">
			<path class="st6" d="M252.19,355.58c-0.78,0-1.41-0.63-1.41-1.41c0-0.78,0.63-1.41,1.41-1.41c25.12,0,49.53-4.88,70.58-14.11
				c0.71-0.31,1.55,0.01,1.86,0.73c0.31,0.72-0.01,1.55-0.73,1.86C302.5,350.61,277.7,355.58,252.19,355.58z"/>
		</g>
		<g class="st5">
			<path class="st6" d="M365.31,210.82c-0.32,0-0.64-0.11-0.9-0.32c-17.72-14.64-39.86-26.01-64.03-32.88
				c-0.75-0.21-1.19-1-0.97-1.75c0.21-0.75,1-1.19,1.75-0.97c24.54,6.98,47.03,18.54,65.05,33.42c0.6,0.5,0.69,1.39,0.19,1.99
				C366.12,210.64,365.72,210.82,365.31,210.82z"/>
		</g>
		<path class="st17" d="M179.15,151.43l5.3,6.57c0.84,1.05,2.27,1.43,3.52,0.95l7.89-3.01c2.81-1.07,5.35,2.08,3.71,4.6l-4.61,7.07
			c-0.74,1.13-0.66,2.6,0.18,3.65l5.3,6.57c1.89,2.34-0.32,5.73-3.23,4.95l-8.15-2.2c-1.3-0.35-2.68,0.17-3.41,1.3l-4.61,7.07
			c-1.64,2.52-5.55,1.46-5.7-1.54l-0.42-8.43c-0.07-1.34-0.99-2.49-2.29-2.84l-8.15-2.2c-2.9-0.79-3.11-4.83-0.3-5.9l7.89-3.01
			c1.26-0.48,2.06-1.71,2-3.06l-0.42-8.43C173.48,150.53,177.27,149.09,179.15,151.43z"/>
		<path class="st17" d="M136.83,175.42l6.91,4.85c1.1,0.77,2.58,0.75,3.65-0.06l6.75-5.08c2.4-1.81,5.72,0.51,4.84,3.39l-2.47,8.07
			c-0.39,1.29,0.08,2.68,1.19,3.45l6.91,4.85c2.46,1.73,1.28,5.6-1.73,5.65l-8.44,0.14c-1.35,0.02-2.52,0.91-2.92,2.2l-2.47,8.07
			c-0.88,2.88-4.93,2.94-5.91,0.1l-2.74-7.99c-0.44-1.27-1.64-2.12-2.99-2.1l-8.44,0.14c-3.01,0.05-4.32-3.78-1.92-5.59l6.75-5.08
			c1.07-0.81,1.51-2.22,1.07-3.49l-2.74-7.99C131.14,176.13,134.37,173.69,136.83,175.42z"/>
		<path class="st17" d="M226.6,140.5l3.72,7.58c0.59,1.21,1.9,1.9,3.23,1.71l8.36-1.2c2.98-0.43,4.76,3.21,2.6,5.3l-6.06,5.88
			c-0.97,0.94-1.22,2.39-0.62,3.6l3.72,7.58c1.33,2.7-1.58,5.52-4.24,4.11l-7.47-3.94c-1.19-0.63-2.65-0.42-3.61,0.52l-6.06,5.88
			c-2.16,2.1-5.74,0.2-5.22-2.76l1.44-8.32c0.23-1.33-0.42-2.65-1.61-3.28l-7.47-3.94c-2.66-1.41-1.97-5.39,1.01-5.82l8.36-1.2
			c1.33-0.19,2.39-1.22,2.62-2.54l1.44-8.32C221.27,138.38,225.28,137.8,226.6,140.5z"/>
	</g>
</g>
</svg>
