<?xml version="1.0" encoding="utf-8"?>
<!-- Generator: Adobe Illustrator 23.0.5, SVG Export Plug-In . SVG Version: 6.00 Build 0)  -->
<svg version="1.1" id="Layer_1" xmlns="http://www.w3.org/2000/svg" xmlns:xlink="http://www.w3.org/1999/xlink" x="0px" y="0px"
	 viewBox="0 0 184 58" style="enable-background:new 0 0 184 58;" xml:space="preserve">
<style type="text/css">
	.st0{fill:none;stroke:#FFFFFF;stroke-width:4;stroke-miterlimit:10;}
	.st1{fill:#711780;}
	.st2{fill:#17BBFE;}
	.st3{fill:#6EBE06;}
	.st4{fill:#E52976;}
	.st5{opacity:0.69;}
	.st6{fill:#FFFFFF;}
	.st7{fill:#FCF4FB;}
	.st8{fill:#FCD012;}
	.st9{fill:#EE510B;}
	.st10{fill:#FE42C8;}
	.st11{fill:#29B7F7;}
	.st12{fill:url(#SVGID_1_);}
	.st13{fill:url(#SVGID_2_);}
	.st14{fill:url(#SVGID_3_);}
	.st15{fill:url(#SVGID_4_);}
	.st16{fill:#751D8A;}
	.st17{fill:#FACE1E;}
</style>
<path class="st0" d="M-822.5-19.2"/>
<g>
	<g>
		<circle class="st1" cx="63.8" cy="35.1" r="13.5"/>
		<circle class="st2" cx="66.1" cy="18.9" r="8.1"/>
	</g>
	<g>
		<circle class="st3" cx="117.9" cy="18.9" r="8.1"/>
		<circle class="st2" cx="120.2" cy="35.1" r="13.5"/>
	</g>
	<g>
		<ellipse class="st4" cx="92" cy="31.6" rx="32.8" ry="22.5"/>
		<g class="st5">
			<path class="st6" d="M62.5,38.9c-0.1,0-0.2-0.1-0.3-0.2c-1.3-2.2-1.9-4.5-1.9-6.8c0-2.6,0.8-5.1,2.3-7.4c0.1-0.1,0.3-0.2,0.4-0.1
				c0.1,0.1,0.2,0.3,0.1,0.4c-1.5,2.2-2.2,4.6-2.2,7.1c0,2.3,0.6,4.4,1.8,6.5c0.1,0.2,0,0.3-0.1,0.4C62.6,38.9,62.5,38.9,62.5,38.9z
				"/>
		</g>
		<g>
			<g>
				<path class="st7" d="M72.5,45.6C72.5,45.6,72.5,45.6,72.5,45.6c-0.6-0.1-1-0.3-1.4-0.8c-0.4-0.4-0.6-1-0.6-1.5l0,0
					c0-0.1,0-0.1,0-0.3c0-0.2,0-0.4,0-0.7c0-0.3,0.1-0.6,0.1-1c0-0.4,0.1-0.7,0.2-1.1c0.2-1,0.5-1.8,0.9-2.4
					c0.2-0.3,0.4-0.6,0.7-0.8c0.2-0.2,0.5-0.4,0.8-0.5c0.3-0.1,0.5-0.2,0.8-0.3c0.2,0,0.5-0.1,0.7-0.1c0.9,0,1.7,0.4,2.3,1.1
					c0,0,0,0,0,0c0.5,0.6,0.9,1.3,1.1,2.2c0,0,0,0,0,0c0.2,0.6,0.3,1.3,0.4,2.1c0,0,0,0,0,0c0,0.3,0,0.6,0.1,0.9c0,0.3,0,0.5,0,0.8
					c0,0.2,0,0.4,0,0.5c0,0.1,0,0.1,0,0.2c0,0,0,0,0,0c0,0,0,0,0,0.1c0,0.5-0.3,1-0.6,1.3c-0.4,0.4-0.9,0.5-1.4,0.5c0,0,0,0-0.1,0
					c0,0,0,0-0.1,0c-0.5-0.1-1-0.3-1.4-0.8c-0.4-0.4-0.6-1-0.5-1.5c0,0,0,0,0,0c0,0.1,0,0.1,0,0.2c0,0.5-0.2,1-0.6,1.4
					C73.6,45.4,73.1,45.6,72.5,45.6C72.5,45.6,72.5,45.6,72.5,45.6z"/>
				<path class="st7" d="M84.9,46.3c0,0-0.1,0-0.2,0c-0.5-0.1-0.9-0.3-1.3-0.7c-0.3-0.4-0.5-0.9-0.5-1.4c0-1.7-0.1-3.5-0.1-5.2
					c0-0.6,0.2-1.1,0.6-1.5c0.3-0.4,0.8-0.6,1.3-0.6c0,0,0,0,0.1,0c0.5,0,1,0.2,1.3,0.6c0.1,0.2,0.3,0.3,0.4,0.5c0,0,0.1,0,0.1,0
					c0,0,0.1,0,0.1,0c0.6,0,1.1,0.3,1.6,0.8c0,0,0,0,0,0c0.3,0.3,0.5,0.6,0.7,1c0,0,0,0,0,0c0.2,0.5,0.4,1.1,0.6,1.9
					c0.1,0.3,0.1,0.6,0.1,0.9c0,0.3,0.1,0.5,0.1,0.7c0,0.2,0,0.4,0,0.5c0,0.1,0,0.2,0,0.3c0,0.5-0.1,1.1-0.5,1.5
					c-0.3,0.4-0.8,0.7-1.3,0.7c0,0,0,0-0.1,0c0,0-0.1,0-0.1,0c-0.5,0-1-0.2-1.3-0.6c-0.1-0.1-0.2-0.2-0.3-0.3
					c-0.1,0.2-0.2,0.3-0.4,0.4C85.8,46.1,85.4,46.3,84.9,46.3z"/>
				<path class="st7" d="M93,46.4c-0.3,0-0.5-0.1-0.8-0.2c-0.3,0.1-0.7,0.2-1,0.2c-0.2,0-0.5,0-0.7-0.1c-0.2-0.1-0.4-0.1-0.7-0.2
					c0,0,0,0,0,0c-0.2-0.1-0.4-0.2-0.6-0.4c-0.2-0.1-0.4-0.3-0.5-0.5c-0.4-0.4-0.7-1-0.9-1.6c-0.2-0.6-0.3-1.2-0.3-1.8c0,0,0,0,0,0
					c0-0.3,0-0.5,0.1-0.8c0-0.3,0.1-0.6,0.2-0.8c0.2-0.5,0.4-1,0.7-1.3c0.3-0.4,0.7-0.8,1.2-1c0.5-0.2,1-0.4,1.5-0.4
					c0.3,0,0.6,0.1,0.9,0.2c0.2-0.1,0.5-0.1,0.7-0.1c0,0,0.1,0,0.1,0c0.5,0,1,0.2,1.3,0.6c0.4,0.4,0.6,0.9,0.5,1.5
					c0,0.8,0,1.6,0,2.4c0,0.8,0.1,1.5,0.1,2.2c0,0.6-0.1,1.1-0.5,1.5c-0.3,0.4-0.8,0.7-1.3,0.7C93.1,46.4,93.1,46.4,93,46.4
					C93.1,46.4,93,46.4,93,46.4z"/>
				<path class="st7" d="M101,46.2c-0.4,0-0.8,0-1.2-0.2c-0.8-0.3-1.4-0.9-1.9-1.7c-0.4-0.8-0.6-1.7-0.5-2.8c0-0.5,0.1-1.1,0.3-1.5
					c0.2-0.5,0.4-1,0.7-1.4c0.3-0.4,0.7-0.7,1.1-1c0,0,0,0,0,0c0.4-0.2,0.9-0.4,1.4-0.4c0,0,0.1,0,0.1,0c0.5,0,1,0.1,1.4,0.4
					c0,0,0,0,0,0c0,0,0,0,0,0c0.4,0.3,0.8,0.6,1,1c0.3,0.4,0.5,0.8,0.6,1.4c0.1,0.5,0.2,1,0.2,1.5c0,0,0,0,0,0
					c0,0.3-0.1,0.6-0.2,0.9c0.1,0.2,0.1,0.3,0.2,0.5c0.1,0.5,0,1.1-0.3,1.5c0,0,0,0,0,0c-0.2,0.3-0.5,0.6-0.8,0.9
					c-0.3,0.2-0.6,0.4-1,0.5c0,0,0,0,0,0c0,0,0,0,0,0c-0.2,0.1-0.3,0.1-0.5,0.1C101.3,46.2,101.2,46.2,101,46.2z"/>
				<path class="st7" d="M105.8,46c-0.4,0-0.7,0-1.1-0.2c-0.6-0.2-1.1-0.7-1.5-1.3c-0.2-0.3-0.3-0.7-0.4-1.1c0,0,0,0,0-0.1
					c-0.2-0.1-0.4-0.2-0.5-0.4c-0.4-0.4-0.6-0.8-0.6-1.4c0-0.6,0.2-1.1,0.5-1.5c0.2-0.2,0.3-0.3,0.5-0.4c0-0.1,0-0.2,0-0.3
					c0,0,0-0.1,0-0.1c0-0.4,0.2-0.8,0.4-1.1c0.3-0.4,0.6-0.6,1.1-0.7c0.2,0,0.3-0.1,0.5-0.1c0.1,0,0.3,0,0.4,0
					c0.3,0.1,0.6,0.2,0.9,0.4c0,0,0,0,0,0c0,0,0,0,0,0c0.1,0.1,0.2,0.2,0.3,0.3c0.2,0.2,0.4,0.6,0.3,1.2c0.3,0.1,0.5,0.2,0.7,0.4
					c0.3,0.3,0.5,0.6,0.5,1c0.2,0.1,0.3,0.2,0.5,0.3c0.4,0.4,0.6,0.9,0.5,1.4c0,0.4-0.1,0.8-0.2,1.1c-0.1,0.4-0.3,0.7-0.5,1
					c0,0,0,0,0,0c-0.5,0.6-1.1,1-1.7,1.2C106.3,45.9,106.1,46,105.8,46z"/>
				<path class="st7" d="M110,45.7c-0.4,0-0.8,0-1.2-0.1c-0.5-0.1-0.9-0.3-1.2-0.5c-0.4-0.3-0.7-0.6-0.9-1.1c-0.2-0.5-0.2-1,0-1.5
					c0.1-0.3,0.2-0.5,0.4-0.7c-0.2-0.5-0.4-1-0.3-1.5c0,0,0,0,0,0c0-0.9,0.4-1.7,1-2.2c0,0,0,0,0,0c0.5-0.4,1.1-0.7,1.8-0.8
					c0.1,0,0.3,0,0.4,0c0.2,0,0.4,0,0.7,0c0.3,0,0.7,0.1,1,0.2c0,0,0,0,0,0c0.4,0.2,0.8,0.4,1.1,0.7c0.3,0.3,0.6,0.7,0.7,1.2
					c0.1,0.5,0,1-0.2,1.5c-0.1,0.1-0.1,0.2-0.2,0.3c0.3,0.4,0.4,0.9,0.4,1.4c0,0.8-0.3,1.6-0.9,2.2c-0.4,0.4-0.9,0.7-1.5,0.9
					c-0.2,0-0.3,0.1-0.5,0.1C110.4,45.6,110.2,45.7,110,45.7z"/>
				<path class="st7" d="M79.9,48.2C79.9,48.2,79.9,48.2,79.9,48.2c-0.6-0.1-1-0.4-1.4-0.8c-0.3-0.4-0.5-1-0.5-1.5
					c0-0.2,0-0.5,0-0.8c0-0.3,0-0.7,0-1c0-0.4,0-0.8,0-1.2c0-0.5,0-0.8,0-1.3c0-0.4,0-0.8,0-1.2c0-0.4,0-0.7,0-1
					c0-0.5,0.2-1,0.5-1.4c0.3-0.4,0.8-0.6,1.3-0.6c0,0,0,0,0.1,0c0.3,0,0.5,0.1,0.7,0.2c0.3-0.1,0.6-0.1,0.9-0.1
					c0.5,0,0.9,0.1,1.3,0.3c0,0,0,0,0,0c0.4,0.2,0.8,0.5,1.1,0.8c0,0,0,0,0,0c0.4,0.4,0.7,0.9,0.9,1.5c0.2,0.6,0.3,1.2,0.3,1.8
					c0,0.6-0.1,1.1-0.3,1.6c-0.2,0.5-0.4,1-0.7,1.4c0,0,0,0,0,0c-0.3,0.4-0.7,0.7-1.2,0.9c-0.4,0.2-0.8,0.3-1.1,0.3
					c0,0.1,0,0.2,0,0.3c0,0.5-0.3,1-0.6,1.3C81,48,80.5,48.2,79.9,48.2C80,48.2,80,48.2,79.9,48.2z"/>
				<path class="st6" d="M78.4,46c-0.5,0-0.9-0.2-1.3-0.6c-0.4-0.4-0.6-0.8-0.6-1.3c0-0.5-0.1-1-0.1-1.5c0-0.4,0-0.9,0-1.4
					c0-0.4,0-0.8,0-1.1c0-0.3,0-0.7,0-1.1c0-0.5,0.1-1.1,0.5-1.4c0.3-0.4,0.8-0.6,1.3-0.6c0,0,0.1,0,0.1,0c0.5,0,0.9,0.2,1.3,0.6
					c0.4,0.4,0.6,0.8,0.6,1.4c0,0,0,0,0,0c0,0.5,0,1,0,1.4c0,0.4,0,0.8,0,1.2c0,0.4,0,0.9,0,1.3c0,0.4,0,0.8,0.1,1.2c0,0,0,0,0,0
					c0,0.5-0.1,1-0.4,1.4c-0.3,0.4-0.8,0.6-1.3,0.7c0,0,0,0-0.1,0C78.5,46,78.4,46,78.4,46z"/>
				<path class="st7" d="M82.1,26.9C82.1,26.8,82.1,26.8,82.1,26.9c-0.6,0-1.2-0.3-1.6-0.7c-0.4-0.5-0.6-1.1-0.6-1.7
					c0.1-1.2,0.1-2.5,0-3.8c0-1.3,0-2.6-0.1-3.8c0-0.6,0.2-1.3,0.6-1.8c0.4-0.5,0.9-0.8,1.5-0.9c0.3,0,0.7-0.1,1-0.1
					c0.5,0,1,0,1.5,0.1c0.8,0.1,1.6,0.3,2.2,0.6c0.7,0.3,1.3,0.8,1.7,1.3c0.3,0.3,0.5,0.7,0.7,1.1c0.2,0.4,0.3,0.8,0.3,1.2
					c0,0,0,0,0,0.1c0,0,0,0,0,0.1c0,0.2,0,0.5,0,0.7c0,0.4-0.1,0.8-0.3,1.2c-0.1,0.4-0.4,0.8-0.6,1.1c-0.3,0.4-0.6,0.8-1.1,1.1
					c-0.8,0.6-1.8,1.1-2.9,1.4c0,0.2,0,0.4,0,0.6c0,0.6-0.3,1.2-0.7,1.6C83.4,26.6,82.8,26.8,82.1,26.9
					C82.2,26.9,82.1,26.9,82.1,26.9z"/>
				<path class="st7" d="M89.5,26.8c-0.5,0-1-0.2-1.4-0.6c-0.4-0.4-0.6-0.9-0.7-1.5c-0.1-0.7-0.1-1.4-0.1-2c0-0.6,0-1.3,0-1.9
					c0-0.5,0-1,0-1.6c0-0.5,0-1,0-1.6c0-0.6,0.1-1.2,0.5-1.7c0.4-0.5,0.9-0.7,1.4-0.8c0.1,0,0.1,0,0.2,0c0.5,0,1,0.2,1.4,0.6
					c0.4,0.4,0.6,0.9,0.7,1.5c0,0,0,0,0,0c0,0.7,0,1.3,0,1.9c0,0.6,0,1.1,0,1.7c0,0.6,0,1.2,0,1.8c0,0.5,0,1.1,0.1,1.6c0,0,0,0,0,0
					c0,0.6-0.1,1.1-0.5,1.6c-0.4,0.5-0.8,0.8-1.4,0.8c0,0,0,0-0.1,0C89.6,26.8,89.5,26.8,89.5,26.8z"/>
				<g>
					<path class="st7" d="M96.3,26.8c-0.4,0-0.7-0.1-1-0.3c-0.5,0.2-0.9,0.3-1.4,0.3c-0.3,0-0.6,0-0.8-0.1c-0.3-0.1-0.5-0.2-0.8-0.3
						c0,0,0,0,0,0c-0.3-0.1-0.5-0.3-0.7-0.5c-0.2-0.2-0.4-0.4-0.6-0.6c-0.5-0.5-0.9-1.2-1.1-1.9c-0.2-0.7-0.3-1.5-0.3-2.2
						c0,0,0,0,0,0c0-0.3,0.1-0.7,0.1-1c0.1-0.4,0.1-0.7,0.3-1c0.2-0.6,0.5-1.2,0.9-1.7c0.4-0.5,0.9-0.9,1.4-1.2
						c0.6-0.3,1.1-0.4,1.7-0.4c0.4,0,0.9,0.1,1.3,0.3c0.3-0.1,0.6-0.2,0.9-0.2c0,0,0.1,0,0.1,0c0.5,0,1,0.3,1.4,0.7
						c0.4,0.5,0.6,1,0.6,1.6c0,1.1,0,2.2,0,3.2c0,1,0.1,2,0.2,2.9c0,0.6-0.1,1.2-0.5,1.6c-0.4,0.5-0.9,0.7-1.4,0.8c0,0,0,0-0.1,0
						C96.3,26.8,96.3,26.8,96.3,26.8z M93.7,21c0,0.1,0,0.2,0,0.3c0,0,0,0,0,0c0,0.1,0,0.3,0,0.4c0-0.1,0-0.3,0-0.4
						C93.7,21.2,93.7,21.1,93.7,21z"/>
				</g>
				<path class="st7" d="M99.3,29.7c-0.3,0-0.6-0.1-0.9-0.2c-0.5-0.3-0.9-0.7-1.1-1.3c-0.2-0.6-0.1-1.1,0.1-1.7c0,0,0,0,0,0
					c0,0,0,0,0,0c0.1-0.3,0.2-0.5,0.3-0.8c0-0.1,0.1-0.2,0.1-0.3c-0.1-0.5-0.3-1-0.4-1.4c-0.1-0.6-0.3-1.2-0.4-1.8
					c-0.1-0.5-0.2-1-0.3-1.6c-0.1-0.5-0.3-1.2-0.4-1.8c-0.2-0.6-0.1-1.2,0.2-1.7c0.3-0.5,0.7-0.9,1.2-1c0,0,0,0,0,0c0,0,0,0,0,0
					c0.2,0,0.4-0.1,0.6-0.1c0.4,0,0.7,0.1,1,0.3c0.4,0.2,0.7,0.6,0.9,0.9c0.2-0.4,0.5-0.7,0.9-0.9c0.3-0.1,0.6-0.2,0.9-0.2
					c0.2,0,0.4,0.1,0.6,0.1c0.5,0.2,1,0.6,1.2,1.2c0.3,0.5,0.3,1.1,0.1,1.7c0,0,0,0,0,0c-0.2,0.7-0.4,1.4-0.6,2s-0.3,1.2-0.5,1.7
					c-0.1,0.5-0.2,0.9-0.4,1.4c-0.1,0.5-0.3,0.9-0.4,1.4c-0.1,0.5-0.3,0.9-0.5,1.4c-0.2,0.5-0.4,1-0.6,1.4c-0.2,0.4-0.4,0.7-0.8,0.9
					C100.1,29.6,99.7,29.7,99.3,29.7z"/>
				<path class="st7" d="M87.5,36.8c-0.3,0-0.6-0.1-0.8-0.2c-0.2-0.1-0.3-0.2-0.5-0.3c-0.2,0.2-0.5,0.3-0.7,0.4c0,0,0,0,0,0
					c-0.2,0-0.3,0.1-0.5,0.1c-0.4,0-0.8-0.1-1.1-0.4c-0.4-0.3-0.7-0.8-0.9-1.4c0-0.2-0.1-0.3-0.1-0.5c0-0.2-0.1-0.3-0.1-0.6
					c-0.1-0.4-0.2-0.9-0.2-1.6c-0.1-0.6-0.2-1.3-0.2-2.1c-0.1-0.5,0.1-1.1,0.4-1.5c0.3-0.4,0.8-0.7,1.3-0.8c0.1,0,0.1,0,0.2,0
					c0.4,0,0.7,0.1,1.1,0.3c0.3-0.3,0.7-0.4,1.1-0.4c0.4,0,0.7,0.1,1.1,0.3c0.3-0.3,0.7-0.4,1.1-0.4c0.1,0,0.1,0,0.2,0
					c0.5,0.1,1,0.3,1.3,0.8c0.3,0.4,0.5,0.9,0.4,1.5c0,0,0,0,0,0c0,0,0,0,0,0c-0.1,0.9-0.2,1.6-0.3,2.3C90,33,89.9,33.6,89.8,34
					c-0.1,0.5-0.2,0.9-0.3,1.2c0,0,0,0,0,0c0,0-0.1,0.1-0.1,0.2c-0.1,0.2-0.2,0.3-0.3,0.5c-0.1,0.2-0.3,0.3-0.5,0.5
					c-0.2,0.2-0.5,0.3-0.8,0.4c0,0-0.1,0-0.1,0c0,0,0,0,0,0C87.6,36.8,87.5,36.8,87.5,36.8z"/>
				<path class="st7" d="M90.3,36.8c-0.5,0-0.9-0.2-1.2-0.5c-0.4-0.3-0.6-0.8-0.7-1.3c0,0,0,0,0,0c0-0.3-0.1-0.6,0-0.9
					c0-0.2,0-0.5,0-0.8c0-0.3,0-0.5,0-0.8c0-0.2,0-0.4,0-0.6c0-0.2,0-0.5,0-0.7C88.1,30.9,88,30.5,88,30c0-0.5,0.2-1.1,0.5-1.5
					c0,0,0,0,0,0c0,0,0,0,0,0c0.1-0.1,0.2-0.2,0.3-0.3c0.1-0.1,0.2-0.2,0.4-0.2c0.2-0.1,0.3-0.1,0.5-0.2c0.2,0,0.3,0,0.5,0
					c0.4,0,0.7,0.1,1,0.2c0,0,0,0,0,0c0,0,0,0,0,0c0.2,0.1,0.4,0.2,0.6,0.4c0,0,0,0,0.1,0.1c0,0,0,0,0,0.1c0.3,0.4,0.5,0.9,0.5,1.4
					c0,0.4-0.1,0.8-0.3,1.2c0,0,0,0.1,0,0.1c0.1,0.4,0.1,0.9,0.1,1.3c0,0.4,0,0.7,0,1c0,0.2,0,0.4,0,0.6c0,0.1,0,0.2,0,0.2
					c0,0,0,0,0,0c0.1,0.6-0.1,1.1-0.4,1.5c-0.3,0.4-0.7,0.7-1.2,0.8C90.5,36.8,90.4,36.8,90.3,36.8z"/>
				<path class="st7" d="M94,36.8c-0.4,0-0.7-0.1-1.1-0.2c-0.6-0.3-1.1-0.8-1.5-1.4c-0.2-0.3-0.3-0.7-0.4-1.2c0,0,0,0,0-0.1
					c-0.2-0.1-0.4-0.2-0.5-0.4c-0.4-0.4-0.6-0.9-0.6-1.4c0-0.6,0.2-1.1,0.5-1.5c0.2-0.2,0.3-0.3,0.5-0.4c0-0.1,0-0.2,0-0.3
					c0,0,0-0.1,0-0.1c0-0.4,0.2-0.8,0.4-1.2c0.3-0.4,0.6-0.6,1.1-0.7c0.2,0,0.3-0.1,0.5-0.1c0.1,0,0.3,0,0.4,0.1
					c0.3,0.1,0.6,0.2,0.9,0.5c0,0,0,0,0,0c0,0,0,0,0,0c0.1,0.1,0.2,0.2,0.3,0.3c0.2,0.2,0.4,0.6,0.3,1.2c0.3,0.1,0.5,0.2,0.7,0.5
					c0.3,0.3,0.5,0.6,0.5,1c0.2,0.1,0.3,0.2,0.5,0.4c0.4,0.4,0.6,0.9,0.5,1.5c0,0.4-0.1,0.8-0.2,1.2c-0.1,0.4-0.3,0.7-0.6,1
					c0,0,0,0,0,0c-0.5,0.6-1.1,1-1.7,1.2C94.5,36.7,94.2,36.8,94,36.8z"/>
				<path class="st7" d="M96.8,36.7c0,0-0.1,0-0.2,0c-0.5,0-0.9-0.3-1.3-0.6c-0.3-0.4-0.5-0.8-0.5-1.4c0-1.8-0.1-3.5-0.1-5.3
					c0-0.6,0.2-1.1,0.6-1.5c0.4-0.4,0.8-0.6,1.3-0.6c0,0,0,0,0.1,0c0.5,0,1,0.2,1.3,0.6c0.1,0.2,0.3,0.3,0.4,0.5c0,0,0.1,0,0.1,0
					c0,0,0.1,0,0.1,0c0.6,0,1.1,0.3,1.6,0.7c0,0,0,0,0,0c0.3,0.3,0.5,0.6,0.7,1c0,0,0,0,0,0c0.2,0.5,0.4,1.1,0.6,1.9
					c0.1,0.3,0.1,0.6,0.1,0.8c0,0.3,0.1,0.5,0.1,0.7c0,0.2,0,0.4,0,0.5c0,0.1,0,0.2,0,0.3c0,0.5-0.1,1-0.5,1.5
					c-0.3,0.4-0.8,0.7-1.3,0.7c0,0,0,0-0.1,0c0,0-0.1,0-0.1,0c-0.5,0-1-0.2-1.3-0.5c-0.1-0.1-0.2-0.2-0.3-0.3
					c-0.1,0.2-0.2,0.3-0.4,0.4C97.7,36.6,97.2,36.7,96.8,36.7z"/>
				<g>
					<path class="st8" d="M77.1,41.6c0,0.3,0,0.6,0.1,0.8c0,0.3,0,0.5,0,0.7c0,0.2,0,0.4,0,0.5c0,0.1,0,0.2,0,0.2
						c0,0.2-0.1,0.3-0.2,0.4c-0.1,0.1-0.3,0.2-0.4,0.1c0,0,0,0,0,0c-0.2,0-0.3-0.1-0.4-0.2C76,44,76,43.9,76,43.7c0-0.2,0-0.3,0-0.5
						s0-0.3,0-0.5c0-0.2,0-0.4,0-0.6c-0.2,0-0.4,0-0.6,0c-0.2,0-0.4,0-0.6,0c-0.3,0-0.5,0-0.8-0.1c-0.2,0-0.5,0-0.7-0.1
						c0,0.2-0.1,0.4-0.1,0.6c0,0.2,0,0.4,0,0.5c0,0.1,0,0.3,0,0.5c0,0.2-0.1,0.3-0.2,0.4c-0.1,0.1-0.3,0.2-0.4,0.1c0,0,0,0,0,0
						c-0.2,0-0.3-0.1-0.4-0.2c-0.1-0.1-0.2-0.3-0.2-0.4c0,0,0-0.1,0-0.3s0-0.4,0-0.6c0-0.3,0-0.6,0.1-0.9c0-0.3,0.1-0.7,0.2-1
						c0.2-0.9,0.4-1.5,0.7-2c0.1-0.2,0.3-0.4,0.4-0.6c0.2-0.1,0.3-0.3,0.5-0.3c0.2-0.1,0.3-0.1,0.4-0.2c0.1,0,0.3,0,0.4,0
						c0.5,0,0.9,0.2,1.3,0.6c0.3,0.4,0.6,0.9,0.8,1.6C77,40.3,77.1,41,77.1,41.6z M73.5,40.8c0.4,0,0.8,0.1,1.2,0.1
						c0.4,0,0.8,0,1.2,0c-0.1-0.9-0.4-1.5-0.7-1.8c-0.1-0.1-0.3-0.2-0.4-0.2c-0.2,0-0.3,0.1-0.5,0.2c-0.1,0.1-0.3,0.3-0.4,0.5
						c-0.1,0.2-0.2,0.4-0.3,0.6C73.6,40.4,73.5,40.6,73.5,40.8z"/>
				</g>
				<g>
					<path class="st9" d="M78.4,44.5c-0.1,0-0.2-0.1-0.3-0.2c-0.1-0.1-0.1-0.2-0.2-0.4c0-0.5-0.1-0.9-0.1-1.4c0-0.4,0-0.9,0-1.4
						c0-0.4,0-0.8,0-1.2c0-0.4,0-0.8,0-1.2c0-0.1,0-0.3,0.1-0.4c0.1-0.1,0.2-0.2,0.4-0.2c0.1,0,0.3,0,0.4,0.1
						c0.1,0.1,0.2,0.2,0.2,0.4c0,0.4,0,0.9,0,1.3c0,0.4,0,0.8,0,1.2c0,0.4,0,0.9,0,1.3c0,0.4,0,0.9,0.1,1.3c0,0.1,0,0.3-0.1,0.4
						C78.7,44.4,78.6,44.5,78.4,44.5C78.4,44.5,78.4,44.5,78.4,44.5z"/>
				</g>
				<g>
					<path class="st10" d="M83.1,39.6c0.3,0.3,0.4,0.6,0.6,1s0.2,0.8,0.2,1.2c0,0.4-0.1,0.8-0.2,1.2c-0.1,0.3-0.3,0.6-0.5,0.9
						c-0.2,0.3-0.5,0.5-0.7,0.6c-0.3,0.1-0.6,0.2-0.8,0.2c-0.2,0-0.4-0.1-0.6-0.2c-0.1-0.1-0.3-0.2-0.4-0.3c0,0.4,0,0.7,0,1.1
						c0,0.3,0,0.6,0,0.9c0,0.1-0.1,0.3-0.2,0.3c-0.1,0.1-0.2,0.1-0.4,0.1c0,0,0,0,0,0c-0.1,0-0.3-0.1-0.4-0.2
						c-0.1-0.1-0.1-0.3-0.1-0.4c0-0.2,0-0.5,0-0.9c0-0.3,0-0.7,0-1.1c0-0.4,0-0.8,0-1.2c0-0.4,0-0.8,0-1.3c0-0.4,0-0.8,0-1.2
						c0-0.4,0-0.7,0-1.1c0-0.1,0-0.3,0.1-0.4c0.1-0.1,0.2-0.2,0.4-0.2c0.1,0,0.3,0,0.4,0.1s0.2,0.2,0.2,0.4c0.3-0.3,0.7-0.5,1.2-0.4
						c0.3,0,0.5,0.1,0.8,0.2C82.7,39.2,82.9,39.3,83.1,39.6z M82.9,41.8c0-0.3,0-0.6-0.1-0.8c-0.1-0.2-0.2-0.5-0.4-0.6
						c-0.2-0.2-0.4-0.4-0.7-0.4c-0.2,0-0.4,0.1-0.6,0.3c-0.1,0.1-0.2,0.3-0.2,0.5c-0.1,0.2-0.1,0.6-0.1,1c0,0.4,0,0.7,0.1,1
						c0.1,0.3,0.2,0.5,0.3,0.6c0.1,0.1,0.3,0.2,0.5,0.2c0.1,0,0.3,0,0.4-0.1c0.1-0.1,0.3-0.2,0.4-0.3c0.1-0.2,0.3-0.4,0.3-0.6
						C82.8,42.3,82.9,42,82.9,41.8z"/>
				</g>
				<g>
					<path class="st11" d="M88.1,44.8c-0.1,0-0.3-0.1-0.4-0.2s-0.2-0.2-0.2-0.4c0-0.2,0-0.4-0.1-0.6c0-0.2,0-0.4-0.1-0.6
						c0-0.2-0.1-0.5-0.1-0.7c-0.1-0.5-0.2-1-0.4-1.3c-0.1-0.2-0.1-0.3-0.2-0.4c-0.1-0.1-0.1-0.1-0.1-0.1c0,0,0,0-0.1,0.1
						c-0.1,0.1-0.1,0.2-0.3,0.4c-0.2,0.3-0.3,0.7-0.5,1.3c-0.1,0.2-0.1,0.5-0.2,0.7c-0.1,0.2-0.1,0.4-0.1,0.6c0,0.2-0.1,0.4-0.1,0.6
						c0,0.1-0.1,0.3-0.2,0.3c-0.1,0.1-0.2,0.1-0.4,0.1c-0.1,0-0.2-0.1-0.3-0.2c-0.1-0.1-0.1-0.2-0.1-0.4c0-1.7-0.1-3.5-0.1-5.2
						c0-0.2,0-0.3,0.1-0.4c0.1-0.1,0.2-0.2,0.4-0.2c0.1,0,0.3,0,0.4,0.2c0.1,0.1,0.2,0.2,0.2,0.4c0,0.7,0,1,0,1.7c0,0,0-0.1,0.1-0.1
						c0,0,0-0.1,0.1-0.1c0.1-0.1,0.1-0.2,0.2-0.3c0.1-0.1,0.2-0.2,0.2-0.3c0.1-0.1,0.3-0.2,0.4-0.2c0.1,0,0.2,0,0.3,0
						c0.3,0,0.5,0.1,0.7,0.3c0.2,0.2,0.3,0.4,0.4,0.6c0.2,0.4,0.3,0.9,0.5,1.6c0.1,0.3,0.1,0.5,0.1,0.8c0,0.3,0.1,0.5,0.1,0.7
						c0,0.2,0,0.4,0,0.5c0,0.1,0,0.2,0,0.2c0,0.1,0,0.3-0.1,0.4C88.4,44.8,88.3,44.8,88.1,44.8C88.1,44.8,88.1,44.8,88.1,44.8z"/>
				</g>
				<path class="st7" d="M94.6,46.4C94.5,46.4,94.5,46.4,94.6,46.4c-0.6,0-1-0.3-1.4-0.7c-0.3-0.4-0.5-0.9-0.5-1.5
					c0-0.4,0.1-0.9,0.1-1.3c0-0.4,0-0.9,0-1.3c0-0.4,0-0.9,0-1.3c0-0.4,0-0.8,0-1.1c0-0.6,0.2-1.1,0.5-1.5c0.4-0.4,0.8-0.6,1.3-0.6
					c0,0,0,0,0.1,0c0.5,0,1,0.2,1.3,0.6c0.1,0.1,0.2,0.3,0.3,0.4c0,0,0,0,0.1,0c0.5,0,0.9,0.1,1.3,0.3c0,0,0,0,0,0s0,0,0,0
					c0.4,0.2,0.7,0.5,1,0.9c0,0,0,0,0,0c0,0,0,0,0,0c0.6,0.7,0.8,1.6,0.9,2.8c0,0,0,0,0,0c0,0.3,0,0.6,0,0.9c0,0.3-0.1,0.6-0.2,0.9
					c-0.2,0.6-0.4,1.1-0.8,1.5c-0.3,0.3-0.7,0.6-1,0.8c-0.4,0.2-0.8,0.3-1.3,0.3c-0.3,0-0.7,0-1-0.2C95.2,46.3,95,46.4,94.6,46.4
					C94.6,46.4,94.6,46.4,94.6,46.4z"/>
				<g>
					<path class="st8" d="M94.1,44.3c0-0.5,0.1-0.9,0.1-1.4c0-0.5,0-0.9,0.1-1.4c0-0.4,0-0.9,0-1.3s0-0.8,0-1.2c0-0.2,0-0.3,0.1-0.4
						c0.1-0.1,0.2-0.2,0.4-0.2c0.1,0,0.3,0,0.4,0.1c0.1,0.1,0.2,0.2,0.2,0.4c0,0.2,0,0.3,0,0.5c0,0.2,0,0.3,0,0.5
						c0.1-0.1,0.3-0.2,0.4-0.3c0.2-0.1,0.5-0.2,0.7-0.2c0.2,0,0.5,0.1,0.7,0.2c0.2,0.1,0.4,0.3,0.6,0.5c0.4,0.5,0.6,1.1,0.6,1.9
						c0,0.2,0,0.4,0,0.6c0,0.2-0.1,0.4-0.1,0.6c-0.1,0.3-0.3,0.7-0.5,0.9c-0.2,0.2-0.4,0.3-0.6,0.4c-0.2,0.1-0.4,0.2-0.7,0.2
						c-0.2,0-0.5,0-0.7-0.1c-0.2-0.1-0.4-0.2-0.6-0.4c0,0,0,0,0,0c0,0,0,0.1,0,0.1c0,0,0,0.1,0,0.1c0,0.1-0.1,0.3-0.2,0.4
						s-0.2,0.1-0.3,0.1c0,0,0,0,0,0c-0.1,0-0.3-0.1-0.4-0.2C94.2,44.6,94.1,44.4,94.1,44.3z M95.9,43.4c0.2,0.2,0.3,0.3,0.6,0.3
						c0.2,0,0.4-0.1,0.5-0.3c0.1-0.1,0.2-0.3,0.3-0.5c0.1-0.2,0.1-0.5,0.1-0.8c0-0.3-0.1-0.6-0.1-0.8c-0.1-0.2-0.1-0.3-0.2-0.4
						c-0.1-0.1-0.2-0.2-0.3-0.2c-0.1-0.1-0.2-0.1-0.3-0.1c-0.2,0-0.4,0.1-0.6,0.3c-0.1,0.1-0.2,0.3-0.2,0.4
						c-0.1,0.2-0.1,0.5-0.1,0.8C95.6,42.7,95.7,43.1,95.9,43.4z"/>
				</g>
				<g>
					<path class="st9" d="M101,44.7c-0.3,0-0.5,0-0.7-0.1c-0.5-0.2-0.8-0.5-1.1-1c-0.3-0.5-0.4-1.2-0.3-1.9c0-0.4,0.1-0.8,0.2-1.1
						c0.1-0.3,0.3-0.6,0.4-0.9c0.2-0.2,0.4-0.4,0.6-0.6c0.3-0.1,0.5-0.2,0.8-0.2c0.3,0,0.5,0.1,0.8,0.2c0.2,0.1,0.4,0.4,0.6,0.6
						c0.2,0.3,0.3,0.6,0.4,0.9c0.1,0.3,0.1,0.7,0.1,1.1c0,0.2-0.1,0.3-0.2,0.4c-0.1,0.1-0.2,0.2-0.4,0.2c-0.3,0-0.6,0-0.8,0
						s-0.6,0-0.9,0.1c-0.1,0-0.2,0-0.3,0c-0.1,0-0.2,0-0.3,0c0,0.3,0.1,0.5,0.2,0.7c0.1,0.2,0.3,0.4,0.5,0.5c0.2,0.1,0.5,0.1,0.8,0
						c0.1,0,0.2-0.1,0.3-0.2c0.1-0.1,0.2-0.1,0.2-0.2c0.1-0.1,0.2-0.2,0.3-0.2c0.1,0,0.3,0,0.4,0.1c0.1,0.1,0.2,0.2,0.2,0.3
						c0,0.1,0,0.3-0.1,0.4c-0.1,0.2-0.3,0.3-0.5,0.5c-0.2,0.1-0.4,0.3-0.6,0.3c-0.1,0-0.2,0.1-0.3,0.1
						C101.2,44.7,101.1,44.7,101,44.7z M100.9,40c-0.2,0-0.4,0.1-0.6,0.4c-0.1,0.1-0.1,0.2-0.2,0.4c-0.1,0.2-0.1,0.4-0.2,0.6
						c0.1,0,0.2,0,0.3,0c0.1,0,0.2,0,0.3,0c0.2,0,0.4,0,0.6-0.1c0.2,0,0.4,0,0.6,0c0-0.2-0.1-0.4-0.1-0.5c-0.1-0.1-0.1-0.3-0.2-0.3
						C101.3,40.1,101.1,40,100.9,40C100.9,40,100.9,40,100.9,40z"/>
				</g>
				<g>
					<path class="st10" d="M107.1,41.9c0.1,0,0.3,0,0.4,0.1c0.1,0.1,0.1,0.2,0.1,0.4c0,0.2,0,0.5-0.1,0.7s-0.2,0.4-0.3,0.6
						c-0.3,0.3-0.6,0.6-1,0.7c-0.1,0-0.3,0.1-0.4,0.1c-0.2,0-0.4,0-0.5-0.1c-0.3-0.1-0.6-0.3-0.7-0.7c-0.1-0.2-0.2-0.4-0.2-0.7
						c-0.1-0.3-0.1-0.7-0.1-1.1c-0.2,0-0.3,0-0.5,0c0,0,0,0,0,0c-0.1,0-0.3,0-0.4-0.1s-0.2-0.2-0.2-0.4c0-0.1,0-0.3,0.1-0.4
						c0.1-0.1,0.2-0.2,0.4-0.2c0.2,0,0.3,0,0.5,0c0-0.3,0-0.6,0-0.9c0-0.3,0-0.4,0-0.6c0,0,0,0,0,0c0,0,0,0,0,0c0-0.1,0-0.2,0.1-0.3
						c0.1-0.1,0.2-0.2,0.3-0.2c0.1,0,0.2,0,0.2,0c0.1,0,0.2,0.1,0.2,0.1c0,0,0.1,0.1,0.1,0.1c0,0.1,0.1,0.2,0.1,0.3c0,0,0,0,0,0
						c0,0,0,0,0,0c0,0,0,0,0,0.1c0,0.1,0,0.3,0,0.5c0,0.2,0,0.5,0,0.8c0.4,0,0.5,0,0.9-0.1c0.1,0,0.3,0,0.4,0.1
						c0.1,0.1,0.2,0.2,0.2,0.4c0,0.1,0,0.3-0.1,0.4c-0.1,0.1-0.2,0.2-0.4,0.2c-0.4,0-0.6,0-0.9,0.1c0,0.2,0,0.4,0,0.6
						c0,0.2,0,0.3,0.1,0.4c0,0.1,0,0.2,0.1,0.3c0,0.1,0,0.1,0.1,0.1c0.1,0.1,0.1,0.2,0.2,0.2c0.1,0,0.2,0,0.3,0
						c0.2,0,0.3-0.1,0.4-0.3c0.1-0.2,0.2-0.4,0.2-0.6c0-0.1,0.1-0.3,0.2-0.4S107,41.9,107.1,41.9C107.1,41.9,107.1,41.9,107.1,41.9z
						 M104.3,39.5C104.3,39.5,104.3,39.5,104.3,39.5C104.3,39.5,104.3,39.5,104.3,39.5C104.4,39.5,104.4,39.5,104.3,39.5
						C104.4,39.6,104.4,39.5,104.3,39.5z"/>
				</g>
				<g>
					<path class="st11" d="M110,44.2c-0.3,0-0.5,0-0.8-0.1c-0.3-0.1-0.5-0.2-0.7-0.3c-0.2-0.1-0.3-0.3-0.4-0.5
						c-0.1-0.1-0.1-0.3,0-0.4s0.1-0.2,0.3-0.3c0.1-0.1,0.3-0.1,0.4,0c0.1,0,0.2,0.1,0.3,0.3c0,0.1,0.1,0.1,0.2,0.2s0.2,0.1,0.4,0.1
						c0.1,0,0.3,0,0.5,0c0.2,0,0.3,0,0.5-0.1c0,0,0.1,0,0.1,0c0.1,0,0.1-0.1,0.2-0.1s0.1-0.1,0.2-0.1s0.1-0.1,0.1-0.2c0,0,0,0,0-0.1
						c0,0-0.1-0.1-0.2-0.1c-0.1-0.1-0.2-0.1-0.3-0.2c-0.1,0-0.3-0.1-0.4-0.1c-0.2-0.1-0.4-0.1-0.6-0.2c-0.2-0.1-0.4-0.2-0.6-0.3
						c-0.5-0.3-0.7-0.8-0.7-1.4c0-0.5,0.2-0.9,0.5-1.2c0.3-0.2,0.6-0.4,1-0.5c0.2,0,0.5,0,0.7,0c0.2,0,0.5,0.1,0.7,0.2
						c0.3,0.1,0.5,0.2,0.6,0.4c0.2,0.2,0.3,0.3,0.3,0.5c0,0.1,0,0.3-0.1,0.4c-0.1,0.1-0.2,0.2-0.3,0.3c-0.1,0-0.3,0-0.4,0
						s-0.2-0.2-0.2-0.3c0,0,0-0.1-0.1-0.1s-0.2-0.1-0.3-0.1c-0.1-0.1-0.3-0.1-0.5-0.1c-0.2,0-0.3,0-0.4,0c-0.1,0-0.2,0.1-0.3,0.1
						c-0.1,0-0.1,0.1-0.2,0.2c0,0.1-0.1,0.1-0.1,0.2c0,0.1,0,0.1,0,0.1c0,0.1,0,0.2,0.1,0.3c0,0.1,0.1,0.2,0.2,0.2
						c0.1,0.1,0.3,0.2,0.4,0.2c0.2,0.1,0.3,0.1,0.5,0.2c0.2,0.1,0.3,0.1,0.5,0.2c0.2,0.1,0.3,0.1,0.5,0.2c0.4,0.3,0.6,0.6,0.6,1
						c0,0.4-0.1,0.7-0.4,1c-0.2,0.2-0.5,0.4-0.9,0.5c-0.1,0-0.2,0.1-0.3,0.1C110.2,44.2,110.1,44.2,110,44.2z"/>
				</g>
				
					<linearGradient id="SVGID_1_" gradientUnits="userSpaceOnUse" x1="79.0602" y1="46.9246" x2="88.1198" y2="33.5737" gradientTransform="matrix(1 0 0 -1 0 60)">
					<stop  offset="0.1245" style="stop-color:#F19554"/>
					<stop  offset="0.3076" style="stop-color:#E77D3E"/>
					<stop  offset="0.5932" style="stop-color:#DB5D20"/>
					<stop  offset="0.8342" style="stop-color:#D34A0E"/>
					<stop  offset="1" style="stop-color:#D04308"/>
				</linearGradient>
				<path class="st12" d="M82.2,25.4c-0.2,0-0.4-0.1-0.6-0.3c-0.2-0.2-0.2-0.4-0.2-0.6c0.1-1.2,0.1-2.6,0-4c0-1.4,0-2.7-0.1-3.9
					c0-0.2,0.1-0.5,0.2-0.7c0.2-0.2,0.4-0.3,0.6-0.3c0.8-0.1,1.5-0.1,2.2,0c0.7,0.1,1.3,0.3,1.8,0.5c0.5,0.3,1,0.6,1.3,1
					c0.2,0.2,0.3,0.4,0.4,0.7s0.2,0.5,0.2,0.8c0,0.1,0,0.3,0,0.5c0,0.2-0.1,0.4-0.2,0.7s-0.2,0.5-0.4,0.8c-0.2,0.3-0.5,0.5-0.8,0.8
					c-0.9,0.7-2,1.2-3.5,1.5c0,0.3,0,0.6,0,0.9c0,0.3,0,0.6,0,0.9c0,0.2-0.1,0.5-0.3,0.6S82.4,25.3,82.2,25.4
					C82.2,25.4,82.2,25.4,82.2,25.4z M83,17.3c0.1,1.2,0.1,2.3,0.1,3.6c0.7-0.2,1.2-0.4,1.6-0.5c0.4-0.2,0.7-0.4,0.9-0.5
					c0.2-0.2,0.4-0.4,0.5-0.5c0.1-0.2,0.2-0.3,0.2-0.5c0-0.2-0.1-0.4-0.3-0.5c-0.2-0.2-0.4-0.3-0.7-0.5C84.7,17.4,83.9,17.3,83,17.3
					z"/>
				
					<linearGradient id="SVGID_2_" gradientUnits="userSpaceOnUse" x1="86.2106" y1="45.5124" x2="92.1283" y2="33.4831" gradientTransform="matrix(1 0 0 -1 0 60)">
					<stop  offset="0" style="stop-color:#1490CF"/>
					<stop  offset="0.3988" style="stop-color:#179FDD"/>
					<stop  offset="1" style="stop-color:#1EBCF9"/>
				</linearGradient>
				<path class="st13" d="M89.5,25.3c-0.2,0-0.3-0.1-0.5-0.2c-0.1-0.1-0.2-0.3-0.2-0.5c-0.1-0.6-0.1-1.3-0.1-1.9c0-0.6,0-1.2,0-1.9
					c0-0.5,0-1.1,0-1.6c0-0.5,0-1.1,0-1.7c0-0.2,0-0.4,0.2-0.5c0.1-0.2,0.3-0.2,0.5-0.3c0.2,0,0.4,0,0.5,0.2
					c0.1,0.1,0.2,0.3,0.2,0.5c0,0.6,0,1.2,0,1.8c0,0.6,0,1.1,0,1.7c0,0.6,0,1.2,0,1.8c0,0.6,0,1.2,0.1,1.8c0,0.2,0,0.4-0.2,0.5
					C89.9,25.2,89.7,25.3,89.5,25.3C89.5,25.3,89.5,25.3,89.5,25.3z"/>
				
					<linearGradient id="SVGID_3_" gradientUnits="userSpaceOnUse" x1="92.1782" y1="42.7358" x2="97.1762" y2="33.3164" gradientTransform="matrix(1 0 0 -1 0 60)">
					<stop  offset="0" style="stop-color:#F7D952"/>
					<stop  offset="2.400000e-02" style="stop-color:#F7D850"/>
					<stop  offset="0.6695" style="stop-color:#F3C726"/>
					<stop  offset="1" style="stop-color:#F2C016"/>
				</linearGradient>
				<path class="st14" d="M96.9,24.5c0,0.2,0,0.4-0.2,0.5s-0.3,0.2-0.5,0.3c0,0,0,0-0.1,0c-0.2,0-0.3-0.1-0.5-0.2
					c-0.1-0.1-0.2-0.3-0.2-0.5c0-0.1,0-0.1,0-0.1c0,0,0,0,0,0.1c-0.1,0.1-0.2,0.2-0.4,0.3c-0.1,0.1-0.3,0.2-0.4,0.2
					c-0.3,0.1-0.6,0.2-0.9,0.2c-0.2,0-0.4,0-0.5-0.1c-0.2,0-0.3-0.1-0.5-0.2c-0.2-0.1-0.3-0.2-0.5-0.3c-0.2-0.1-0.3-0.3-0.4-0.4
					c-0.4-0.4-0.6-0.8-0.8-1.4c-0.2-0.5-0.3-1.1-0.2-1.7c0-0.3,0-0.6,0.1-0.8c0-0.3,0.1-0.5,0.2-0.8c0.2-0.5,0.4-0.9,0.7-1.2
					c0.3-0.4,0.6-0.6,1-0.8c0.4-0.2,0.7-0.3,1.1-0.3c0.6,0,1.1,0.2,1.5,0.6c0-0.2,0.1-0.3,0.2-0.4c0.1-0.1,0.3-0.2,0.5-0.2
					c0.2,0,0.3,0.1,0.5,0.2c0.1,0.1,0.2,0.3,0.2,0.5c0,1.2,0,2.3,0,3.4C96.8,22.6,96.9,23.6,96.9,24.5z M94.5,23.5
					c0.2-0.2,0.3-0.5,0.4-0.9s0.1-0.8,0.1-1.3c0-0.4,0-0.7-0.1-1c-0.1-0.3-0.2-0.6-0.3-0.8c-0.1-0.2-0.2-0.4-0.4-0.5
					c-0.2-0.1-0.3-0.2-0.5-0.2c-0.2,0-0.4,0.1-0.6,0.2c-0.2,0.1-0.4,0.3-0.5,0.5c-0.2,0.2-0.3,0.5-0.4,0.8c-0.1,0.3-0.2,0.7-0.2,1
					c0,0.4,0,0.8,0.1,1.1c0.1,0.3,0.3,0.6,0.5,0.9c0.1,0.2,0.3,0.3,0.5,0.4c0.2,0.1,0.3,0.1,0.5,0.1C94.1,23.8,94.3,23.7,94.5,23.5z
					"/>
				
					<linearGradient id="SVGID_4_" gradientUnits="userSpaceOnUse" x1="97.4963" y1="43.4273" x2="102.9019" y2="32.7127" gradientTransform="matrix(1 0 0 -1 0 60)">
					<stop  offset="0" style="stop-color:#FF3AC5"/>
					<stop  offset="1" style="stop-color:#D048B1"/>
				</linearGradient>
				<path class="st15" d="M102.3,17.7c0.2,0.1,0.3,0.2,0.4,0.4c0.1,0.2,0.1,0.4,0,0.6c-0.2,0.7-0.4,1.4-0.6,2
					c-0.2,0.6-0.3,1.2-0.5,1.8c-0.1,0.5-0.2,0.9-0.4,1.4c-0.1,0.4-0.2,0.9-0.4,1.3c-0.1,0.4-0.3,0.9-0.4,1.3
					c-0.2,0.4-0.3,0.9-0.5,1.3c-0.1,0.1-0.1,0.2-0.3,0.3s-0.2,0.1-0.4,0.1c-0.1,0-0.2,0-0.3-0.1c-0.2-0.1-0.3-0.2-0.4-0.4
					c-0.1-0.2-0.1-0.4,0-0.6c0.1-0.3,0.3-0.6,0.4-0.9c0.1-0.3,0.2-0.6,0.3-0.9c0,0,0,0,0,0c-0.2-0.6-0.4-1.2-0.5-1.8
					c-0.1-0.6-0.3-1.2-0.4-1.7c-0.1-0.5-0.2-1-0.3-1.6c-0.1-0.6-0.3-1.2-0.5-1.9c-0.1-0.2,0-0.4,0.1-0.6c0.1-0.2,0.2-0.3,0.4-0.3
					c0.2,0,0.4,0,0.5,0.1S99,17.8,99,18c0.2,0.7,0.3,1.3,0.5,1.9c0.1,0.6,0.2,1.1,0.4,1.6c0,0.2,0.1,0.4,0.1,0.7s0.1,0.4,0.1,0.6
					c0-0.1,0.1-0.3,0.1-0.4c0-0.1,0.1-0.3,0.1-0.4c0.1-0.6,0.3-1.2,0.5-1.8c0.2-0.6,0.4-1.3,0.6-2.1c0.1-0.2,0.2-0.3,0.3-0.4
					C101.9,17.6,102.1,17.6,102.3,17.7z"/>
				<g>
					<path class="st16" d="M87.5,35.2c-0.1,0-0.2,0-0.3-0.1c-0.1-0.1-0.2-0.2-0.3-0.3c0-0.1-0.1-0.2-0.1-0.3s-0.1-0.3-0.1-0.5
						c0-0.2-0.1-0.4-0.2-0.6c-0.1-0.2-0.1-0.5-0.2-0.8c-0.1,0.2-0.1,0.4-0.2,0.6c0,0.2-0.1,0.4-0.2,0.5c-0.1,0.2-0.1,0.4-0.2,0.5
						c-0.1,0.1-0.1,0.3-0.2,0.4c-0.1,0.1-0.1,0.2-0.2,0.3c-0.1,0.1-0.2,0.2-0.3,0.2c-0.2,0-0.3,0-0.5-0.1c-0.2-0.1-0.3-0.3-0.4-0.6
						c0-0.1-0.1-0.2-0.1-0.4c0-0.1-0.1-0.3-0.1-0.5c-0.1-0.4-0.1-0.9-0.2-1.5c-0.1-0.6-0.2-1.3-0.2-2c0-0.1,0-0.3,0.1-0.4
						c0.1-0.1,0.2-0.2,0.3-0.2c0.1,0,0.3,0,0.4,0.1c0.1,0.1,0.2,0.2,0.2,0.4c0.1,0.7,0.1,1.3,0.2,1.8c0.1,0.5,0.1,1,0.2,1.4
						c0,0,0,0.1,0,0.1c0,0,0-0.1,0-0.1s0,0,0-0.1c0.1-0.4,0.2-0.9,0.3-1.4c0.1-0.5,0.2-1.2,0.4-1.9c0-0.1,0.1-0.2,0.2-0.3
						c0.1-0.1,0.2-0.1,0.3-0.1c0.1,0,0.2,0,0.3,0.1c0.1,0.1,0.2,0.2,0.2,0.3c0.2,0.8,0.3,1.5,0.4,2c0.1,0.5,0.2,1,0.3,1.3
						c0,0,0,0.1,0,0.1c0,0,0-0.1,0-0.1c0,0,0-0.1,0-0.1c0.1-0.4,0.1-0.9,0.2-1.4c0.1-0.5,0.1-1.2,0.2-1.9c0-0.2,0.1-0.3,0.2-0.4
						c0.1-0.1,0.2-0.1,0.4-0.1c0.1,0,0.3,0.1,0.3,0.2c0.1,0.1,0.1,0.3,0.1,0.4c-0.1,0.9-0.2,1.6-0.3,2.2c-0.1,0.6-0.2,1.1-0.2,1.6
						c-0.1,0.4-0.2,0.7-0.2,0.9c0,0,0,0.1-0.1,0.1c0,0.1-0.1,0.1-0.1,0.2c0,0.1-0.1,0.1-0.2,0.2c-0.1,0.1-0.1,0.1-0.2,0.1
						C87.6,35.2,87.5,35.2,87.5,35.2C87.5,35.2,87.5,35.2,87.5,35.2z"/>
				</g>
				<g>
					<path class="st16" d="M90.9,29.6c0.1,0.1,0.2,0.3,0.2,0.4c0,0.2-0.1,0.3-0.2,0.4c-0.1,0.1-0.1,0.1-0.2,0.2
						c-0.1,0.1-0.3,0.1-0.4,0.1c-0.1,0-0.1,0-0.2,0s-0.1,0-0.2-0.1c0,0-0.1,0-0.1-0.1c0,0-0.1-0.1-0.1-0.1c-0.1-0.1-0.2-0.3-0.2-0.4
						c0-0.2,0.1-0.3,0.2-0.4c0,0,0.1-0.1,0.1-0.1c0,0,0.1-0.1,0.1-0.1c0.1,0,0.1,0,0.2-0.1s0.1,0,0.2,0c0.2,0,0.3,0,0.4,0.1
						C90.8,29.5,90.8,29.5,90.9,29.6z M90.8,31.5c0.1,0.3,0.1,0.7,0.1,1c0,0.3,0,0.7,0,1c0,0.2,0,0.4,0,0.6c0,0.2,0,0.4,0,0.5
						c0,0.2,0,0.3-0.1,0.4c-0.1,0.1-0.2,0.2-0.3,0.2c0,0,0,0-0.1,0c-0.1,0-0.2,0-0.3-0.1c-0.1-0.1-0.2-0.2-0.2-0.3
						c0-0.2,0-0.4,0-0.6c0-0.2,0-0.5,0-0.7c0-0.3,0-0.6,0-0.9c0-0.3,0-0.6-0.1-0.9c0-0.1,0-0.3,0.1-0.4c0.1-0.1,0.2-0.2,0.3-0.2
						c0.1,0,0.3,0,0.4,0.1C90.7,31.3,90.8,31.4,90.8,31.5z"/>
				</g>
				<g>
					<path class="st16" d="M95.3,32.7c0.1,0,0.3,0.1,0.4,0.2c0.1,0.1,0.1,0.2,0.1,0.4c0,0.2,0,0.5-0.1,0.7c-0.1,0.2-0.2,0.4-0.3,0.6
						c-0.3,0.3-0.6,0.6-1,0.7c-0.1,0-0.3,0.1-0.4,0.1c-0.2,0-0.4,0-0.5-0.1c-0.3-0.1-0.6-0.4-0.7-0.7c-0.1-0.2-0.2-0.5-0.2-0.8
						c-0.1-0.3-0.1-0.7-0.1-1.1c-0.2,0-0.3,0-0.5,0c0,0,0,0,0,0c-0.1,0-0.3-0.1-0.4-0.2c-0.1-0.1-0.2-0.2-0.2-0.4
						c0-0.2,0-0.3,0.1-0.4c0.1-0.1,0.2-0.2,0.4-0.2c0.2,0,0.3,0,0.5,0c0-0.3,0-0.6,0-0.9c0-0.3,0-0.5,0-0.6c0,0,0,0,0-0.1
						c0,0,0,0,0,0c0-0.1,0-0.2,0.1-0.3c0.1-0.1,0.2-0.2,0.3-0.2c0.1,0,0.2,0,0.2,0c0.1,0,0.2,0.1,0.2,0.1c0,0,0.1,0.1,0.1,0.2
						c0,0.1,0.1,0.2,0.1,0.3c0,0,0,0,0,0c0,0,0,0,0,0c0,0,0,0,0,0.1c0,0.1,0,0.3,0,0.5c0,0.2,0,0.5,0,0.8c0.4,0,0.5,0,0.9,0
						c0.1,0,0.3,0,0.4,0.1s0.2,0.2,0.2,0.4c0,0.1,0,0.3-0.1,0.4c-0.1,0.1-0.2,0.2-0.4,0.2c-0.4,0-0.6,0-0.9,0c0,0.2,0,0.4,0,0.6
						s0,0.3,0.1,0.4c0,0.1,0,0.2,0.1,0.3c0,0.1,0,0.1,0.1,0.1c0.1,0.1,0.1,0.2,0.2,0.2c0.1,0,0.2,0,0.3,0c0.2,0,0.3-0.1,0.4-0.3
						c0.1-0.2,0.2-0.4,0.2-0.6c0-0.1,0.1-0.3,0.2-0.4C95,32.7,95.1,32.7,95.3,32.7C95.3,32.7,95.3,32.7,95.3,32.7z M92.5,30
						C92.5,30,92.5,30,92.5,30C92.5,30,92.5,30,92.5,30C92.5,30.1,92.5,30.1,92.5,30C92.5,30.1,92.5,30.1,92.5,30z"/>
				</g>
				<g>
					<path class="st16" d="M100,35.2c-0.1,0-0.3,0-0.4-0.1c-0.1-0.1-0.2-0.2-0.2-0.4c0-0.2,0-0.4-0.1-0.6c0-0.2,0-0.4-0.1-0.6
						c0-0.2-0.1-0.5-0.1-0.7c-0.1-0.5-0.2-1-0.4-1.3c-0.1-0.2-0.1-0.3-0.2-0.4c-0.1-0.1-0.1-0.1-0.1-0.1c0,0,0,0-0.1,0.1
						c-0.1,0.1-0.1,0.2-0.3,0.4c-0.2,0.3-0.3,0.7-0.5,1.3c-0.1,0.2-0.1,0.5-0.2,0.7c-0.1,0.2-0.1,0.4-0.1,0.6c0,0.2-0.1,0.4-0.1,0.6
						c0,0.1-0.1,0.3-0.2,0.3c-0.1,0.1-0.2,0.1-0.4,0.1c-0.1,0-0.2-0.1-0.3-0.2c-0.1-0.1-0.1-0.2-0.1-0.4c0-1.7-0.1-3.5-0.1-5.2
						c0-0.2,0-0.3,0.1-0.4c0.1-0.1,0.2-0.2,0.4-0.2c0.1,0,0.3,0,0.4,0.2c0.1,0.1,0.2,0.2,0.2,0.4c0,0.7,0,1,0,1.7c0,0,0-0.1,0.1-0.1
						c0,0,0-0.1,0.1-0.1c0.1-0.1,0.1-0.2,0.2-0.3c0.1-0.1,0.2-0.2,0.2-0.3c0.1-0.1,0.3-0.2,0.4-0.2c0.1,0,0.2-0.1,0.3,0
						c0.3,0,0.5,0.1,0.7,0.3c0.2,0.2,0.3,0.4,0.4,0.6c0.2,0.4,0.3,0.9,0.5,1.5c0.1,0.3,0.1,0.5,0.1,0.8c0,0.2,0.1,0.5,0.1,0.7
						c0,0.2,0,0.4,0,0.5c0,0.1,0,0.2,0,0.2c0,0.1,0,0.3-0.1,0.4C100.3,35.1,100.1,35.2,100,35.2C100,35.2,100,35.2,100,35.2z"/>
				</g>
				<g>
					<path class="st16" d="M93.5,44.3c0,0.2,0,0.3-0.1,0.4s-0.2,0.2-0.4,0.2c0,0,0,0,0,0c-0.1,0-0.3,0-0.4-0.1s-0.2-0.2-0.2-0.4
						c0,0,0-0.1,0-0.1c0,0,0,0,0,0c-0.1,0.1-0.2,0.2-0.3,0.2s-0.2,0.1-0.3,0.2c-0.2,0.1-0.4,0.1-0.7,0.1c-0.1,0-0.3,0-0.4,0
						c-0.1,0-0.3-0.1-0.4-0.1c-0.1-0.1-0.2-0.1-0.4-0.2c-0.1-0.1-0.2-0.2-0.3-0.3c-0.3-0.3-0.5-0.6-0.6-1C89,42.8,89,42.3,89,41.9
						c0-0.2,0-0.4,0.1-0.6s0.1-0.4,0.1-0.6c0.1-0.3,0.3-0.7,0.5-0.9c0.2-0.3,0.4-0.5,0.7-0.6c0.3-0.1,0.5-0.2,0.8-0.2
						c0.4,0,0.8,0.2,1.1,0.5c0-0.1,0.1-0.2,0.2-0.3s0.2-0.1,0.3-0.1c0.1,0,0.3,0.1,0.4,0.2c0.1,0.1,0.1,0.2,0.1,0.4
						c0,0.9,0,1.7,0,2.5C93.4,42.9,93.5,43.6,93.5,44.3z M91.7,43.5c0.1-0.2,0.2-0.4,0.3-0.6s0.1-0.6,0.1-1c0-0.3,0-0.5-0.1-0.8
						c0-0.2-0.1-0.4-0.2-0.6c-0.1-0.2-0.2-0.3-0.3-0.4c-0.1-0.1-0.2-0.1-0.4-0.1c-0.1,0-0.3,0-0.4,0.1c-0.1,0.1-0.3,0.2-0.4,0.4
						c-0.1,0.2-0.2,0.4-0.3,0.6c-0.1,0.2-0.1,0.5-0.1,0.8c0,0.3,0,0.6,0.1,0.8c0.1,0.3,0.2,0.5,0.4,0.7c0.1,0.1,0.2,0.2,0.4,0.3
						c0.1,0.1,0.3,0.1,0.4,0.1C91.4,43.8,91.6,43.7,91.7,43.5z"/>
				</g>
			</g>
		</g>
		<g class="st5">
			<path class="st6" d="M92.5,52.8c-0.2,0-0.3-0.1-0.3-0.3c0-0.2,0.1-0.3,0.3-0.3c5.7,0,11.2-1.1,15.9-3.2c0.2-0.1,0.3,0,0.4,0.2
				c0.1,0.2,0,0.3-0.2,0.4C103.8,51.7,98.2,52.8,92.5,52.8z"/>
		</g>
		<g class="st5">
			<path class="st6" d="M118,20.2c-0.1,0-0.1,0-0.2-0.1c-4-3.3-9-5.9-14.4-7.4c-0.2,0-0.3-0.2-0.2-0.4c0-0.2,0.2-0.3,0.4-0.2
				c5.5,1.6,10.6,4.2,14.7,7.5c0.1,0.1,0.2,0.3,0,0.4C118.2,20.1,118.1,20.2,118,20.2z"/>
		</g>
		<path class="st17" d="M76,6.8l1.2,1.5c0.2,0.2,0.5,0.3,0.8,0.2l1.8-0.7c0.6-0.2,1.2,0.5,0.8,1l-1,1.6c-0.2,0.3-0.1,0.6,0,0.8
			l1.2,1.5c0.4,0.5-0.1,1.3-0.7,1.1l-1.8-0.5c-0.3-0.1-0.6,0-0.8,0.3l-1,1.6c-0.4,0.6-1.3,0.3-1.3-0.3L75.1,13
			c0-0.3-0.2-0.6-0.5-0.6l-1.8-0.5c-0.7-0.2-0.7-1.1-0.1-1.3l1.8-0.7c0.3-0.1,0.5-0.4,0.5-0.7l-0.1-1.9C74.7,6.6,75.6,6.2,76,6.8z"
			/>
		<path class="st17" d="M66.5,12.2l1.6,1.1c0.2,0.2,0.6,0.2,0.8,0l1.5-1.1c0.5-0.4,1.3,0.1,1.1,0.8l-0.6,1.8c-0.1,0.3,0,0.6,0.3,0.8
			l1.6,1.1c0.6,0.4,0.3,1.3-0.4,1.3l-1.9,0c-0.3,0-0.6,0.2-0.7,0.5l-0.6,1.8c-0.2,0.6-1.1,0.7-1.3,0l-0.6-1.8
			c-0.1-0.3-0.4-0.5-0.7-0.5l-1.9,0c-0.7,0-1-0.9-0.4-1.3l1.5-1.1c0.2-0.2,0.3-0.5,0.2-0.8L65.4,13C65.2,12.3,65.9,11.8,66.5,12.2z"
			/>
		<path class="st17" d="M86.7,4.3L87.6,6c0.1,0.3,0.4,0.4,0.7,0.4l1.9-0.3c0.7-0.1,1.1,0.7,0.6,1.2l-1.4,1.3
			c-0.2,0.2-0.3,0.5-0.1,0.8l0.8,1.7c0.3,0.6-0.4,1.2-1,0.9l-1.7-0.9c-0.3-0.1-0.6-0.1-0.8,0.1l-1.4,1.3c-0.5,0.5-1.3,0-1.2-0.6
			l0.3-1.9c0.1-0.3-0.1-0.6-0.4-0.7l-1.7-0.9c-0.6-0.3-0.4-1.2,0.2-1.3l1.9-0.3c0.3,0,0.5-0.3,0.6-0.6l0.3-1.9
			C85.5,3.8,86.4,3.7,86.7,4.3z"/>
	</g>
</g>
</svg>
